<svg width="11" height="19" viewBox="0 0 11 19" fill="none" xmlns="http://www.w3.org/2000/svg">
<path fill-rule="evenodd" clip-rule="evenodd" d="M9.80874 0.273522C9.62652 0.0979107 9.38482 0 9.13353 0C8.88224 0 8.64054 0.0979107 8.45832 0.273522L0.559612 8.00947C0.382803 8.17999 0.242017 8.38523 0.145813 8.6127C0.0496099 8.84017 0 9.08512 0 9.33265C0 9.58019 0.0496099 9.82514 0.145813 10.0526C0.242017 10.2801 0.382803 10.4853 0.559612 10.6558L8.51551 18.4489C8.88448 18.8093 9.48221 18.814 9.85671 18.4582C9.94738 18.3735 10.0199 18.2707 10.0698 18.1564C10.1197 18.042 10.1459 17.9184 10.1468 17.7933C10.1476 17.6682 10.1231 17.5443 10.0748 17.4292C10.0265 17.3141 9.95542 17.2103 9.86593 17.1243L2.58525 9.99401C2.49678 9.90874 2.42632 9.8061 2.37818 9.69232C2.33003 9.57854 2.3052 9.45601 2.3052 9.33218C2.3052 9.20836 2.33003 9.08583 2.37818 8.97205C2.42632 8.85827 2.49678 8.75563 2.58525 8.67036L9.80782 1.59623C9.89627 1.51105 9.96671 1.40848 10.0148 1.29478C10.063 1.18108 10.0878 1.05863 10.0878 0.934878C10.0878 0.811129 10.063 0.688674 10.0148 0.574974C9.96671 0.461274 9.89719 0.358707 9.80874 0.273522Z" fill="black"/>
</svg>
