<svg width="26" height="28" viewBox="0 0 26 28" fill="none" xmlns="http://www.w3.org/2000/svg">
<path d="M24.3815 12.2979H15.0008V2.17285C15.0008 1.7253 14.8361 1.29608 14.5429 0.979609C14.2497 0.663142 13.8521 0.485352 13.4374 0.485352C13.0227 0.485352 12.6251 0.663142 12.3319 0.979609C12.0387 1.29608 11.874 1.7253 11.874 2.17285V12.2979H2.49331C2.07866 12.2979 1.68099 12.4756 1.38779 12.7921C1.09459 13.1086 0.929871 13.5378 0.929871 13.9854C0.929871 14.4329 1.09459 14.8621 1.38779 15.1786C1.68099 15.4951 2.07866 15.6729 2.49331 15.6729H11.874V25.7979C11.874 26.2454 12.0387 26.6746 12.3319 26.9911C12.6251 27.3076 13.0227 27.4854 13.4374 27.4854C13.8521 27.4854 14.2497 27.3076 14.5429 26.9911C14.8361 26.6746 15.0008 26.2454 15.0008 25.7979V15.6729H24.3815C24.7961 15.6729 25.1938 15.4951 25.487 15.1786C25.7802 14.8621 25.9449 14.4329 25.9449 13.9854C25.9449 13.5378 25.7802 13.1086 25.487 12.7921C25.1938 12.4756 24.7961 12.2979 24.3815 12.2979Z" fill="#CFCBD0"/>
</svg>
