<svg width="35" height="35" viewBox="0 0 35 35" fill="none" xmlns="http://www.w3.org/2000/svg">
<path d="M6.67871 34.4217C13.8927 35.1928 21.1066 35.1928 28.3206 34.4217C31.2607 34.0806 34.0799 31.2608 34.4217 28.3207C35.1928 21.1069 35.1928 13.8931 34.4217 6.67926C34.0806 3.73918 31.2607 0.920099 28.3206 0.578309C21.1066 -0.19277 13.8927 -0.19277 6.67871 0.578309C3.73857 0.920099 0.919434 3.73918 0.57832 6.67926C-0.192773 13.8931 -0.192773 21.1069 0.57832 28.3207C0.919434 31.2608 3.73857 34.0799 6.67871 34.4217ZM17.5 5.12959C20.5604 5.12959 23.0412 7.6103 23.0412 10.6707C23.0412 13.7311 20.5604 16.2118 17.5 16.2118C14.4396 16.2118 11.9588 13.7311 11.9588 10.6707C11.9588 7.6103 14.4396 5.12959 17.5 5.12959ZM7.82646 24.1126C9.44863 20.7405 13.1804 17.7786 17.5 17.7498C21.8196 17.7786 25.5514 20.7398 27.1735 24.1126C28.0417 25.8974 26.5945 28.5538 24.42 29.1028C19.8358 30.1254 15.1648 30.1254 10.5813 29.1028C8.40684 28.5538 6.95898 25.8968 7.82783 24.1126H7.82646Z" fill="white"/>
</svg>
