<svg width="79" height="79" viewBox="0 0 79 79" fill="none" xmlns="http://www.w3.org/2000/svg">
<path d="M14.8125 21.3958V20.8125C14.8125 17.9841 14.8125 16.5699 15.6912 15.6912C16.5699 14.8125 17.9841 14.8125 20.8125 14.8125L59.8958 14.8125C60.3672 14.8125 60.6029 14.8125 60.7494 14.9589C60.8958 15.1054 60.8958 15.3411 60.8958 15.8125V21.9792C60.8958 24.8076 60.8958 26.2218 60.0172 27.1005C59.1385 27.9792 57.7243 27.9792 54.8958 27.9792H49.375M14.8125 21.3958V21.9792C14.8125 24.8076 14.8125 26.2218 15.6912 27.1005C16.5699 27.9792 17.9841 27.9792 20.8125 27.9792L62.1875 27.9792C63.1303 27.9792 63.6017 27.9792 63.8946 28.2721C64.1875 28.565 64.1875 29.0364 64.1875 29.9792V41.1458M14.8125 21.3958L14.8125 60.1875C14.8125 62.0731 14.8125 63.0159 15.3983 63.6017C15.9841 64.1875 16.9269 64.1875 18.8125 64.1875L62.1875 64.1875C63.1303 64.1875 63.6017 64.1875 63.8946 63.8946C64.1875 63.6017 64.1875 63.1303 64.1875 62.1875V54.3125M64.1875 54.3125H53.0208C52.078 54.3125 51.6066 54.3125 51.3137 54.0196C51.0208 53.7267 51.0208 53.2553 51.0208 52.3125V43.1458C51.0208 42.203 51.0208 41.7316 51.3137 41.4387C51.6066 41.1458 52.078 41.1458 53.0208 41.1458H64.1875M64.1875 54.3125V41.1458" stroke="white" stroke-width="3"/>
</svg>
