<svg width="105" height="90" viewBox="0 0 105 90" fill="none" xmlns="http://www.w3.org/2000/svg">
<path d="M23.5556 49.8851L28.9371 57.036C30.2654 58.8011 32.7732 59.1552 34.5384 57.8268L41.0167 52.9515C42.3405 51.9552 42.6061 50.0744 41.6098 48.7505L35.5318 40.6742C34.8676 39.7916 35.0447 38.5377 35.9273 37.8735L37.9046 36.3854C38.7872 35.7212 40.0411 35.8983 40.7053 36.7808L46.7832 44.8572C47.7795 46.181 49.6604 46.4466 50.9842 45.4503L57.4625 40.575C59.2277 39.2466 59.5817 36.7388 58.2533 34.9737L52.8719 27.8228" stroke="white" stroke-width="3" stroke-linecap="round"/>
<path d="M35.6274 40.801L23.556 49.8855L17.362 31.4044C17.1618 30.8072 17.2071 30.155 17.4878 29.5912V29.5912C18.2747 28.011 20.4495 27.8113 21.511 29.2218L21.7961 29.6007" stroke="white" stroke-width="3" stroke-linecap="round" stroke-linejoin="round"/>
<path d="M40.8005 36.9075L52.8719 27.823L36.828 16.7545C36.3096 16.3969 35.6704 16.2598 35.0509 16.3735V16.3735C33.3145 16.6921 32.5206 18.7266 33.5821 20.1372L33.8672 20.516" stroke="white" stroke-width="3" stroke-linecap="round" stroke-linejoin="round"/>
<path d="M66.1558 57.5957L68.0109 49.3006C69.0354 44.7194 73.5798 41.8361 78.1611 42.8606V42.8606C82.7423 43.8852 85.6256 48.4296 84.6011 53.0108L82.7459 61.3059" stroke="white" stroke-width="3" stroke-linecap="round"/>
<path d="M58.1532 53.0316C58.6747 51.3644 58.9355 50.5307 59.611 50.1405C60.2866 49.7503 61.139 49.941 62.8438 50.3222L88.8406 56.1361C90.5454 56.5174 91.3978 56.708 91.8428 57.3488C92.2877 57.9896 92.1685 58.8549 91.9302 60.5855L89.2374 80.1352C89.0986 81.1427 89.0293 81.6465 88.6688 81.8967C88.3084 82.147 87.8122 82.036 86.8196 81.814L53.7341 74.4148C52.7416 74.1929 52.2453 74.0819 52.0258 73.7019C51.8064 73.322 51.9582 72.8367 52.2618 71.866L58.1532 53.0316Z" stroke="white" stroke-width="3"/>
</svg>
