<svg width="86" height="86" viewBox="0 0 86 86" fill="none" xmlns="http://www.w3.org/2000/svg">
<path d="M12.25 28.6668C12.25 25.246 12.2532 22.8313 12.499 21.0029C12.739 19.2177 13.1853 18.2176 13.9097 17.4932C14.6341 16.7688 15.6342 16.3225 17.4194 16.0825C19.2478 15.8367 21.6625 15.8335 25.0833 15.8335H60.9167C64.3375 15.8335 66.7522 15.8367 68.5806 16.0825C70.3658 16.3225 71.3659 16.7688 72.0903 17.4932L73.1509 16.4326L72.0903 17.4932C72.8147 18.2176 73.261 19.2177 73.501 21.0029C73.7468 22.8313 73.75 25.246 73.75 28.6668V59.4168H12.25V28.6668Z" stroke="#284180" stroke-width="3"/>
<path d="M13.1389 59.4165C10.9911 59.4165 9.25 61.1576 9.25 63.3054C9.25 66.7725 12.0607 69.5832 15.5278 69.5832H70.4722C73.9393 69.5832 76.75 66.7725 76.75 63.3054C76.75 61.1576 75.0089 59.4165 72.8611 59.4165H13.1389Z" stroke="#284180" stroke-width="3"/>
<path d="M37.7593 29.249L44.0301 29.249" stroke="#284180" stroke-width="3" stroke-linecap="round"/>
<path d="M37.7593 41.7905L42.4624 41.7905" stroke="#284180" stroke-width="3" stroke-linecap="round"/>
<path d="M37.7593 35.5195L47.1655 35.5195" stroke="#284180" stroke-width="3" stroke-linecap="round"/>
<path d="M53.4362 35.5197V28.978C53.4362 26.1496 53.4362 24.7354 52.5575 23.8567C51.6788 22.978 50.2646 22.978 47.4362 22.978H37.4883C34.6599 22.978 33.2456 22.978 32.367 23.8567C31.4883 24.7354 31.4883 26.1496 31.4883 28.978V45.1968C31.4883 48.0252 31.4883 49.4394 32.367 50.3181C33.2456 51.1968 34.6599 51.1968 37.4883 51.1968H42.4622" stroke="#284180" stroke-width="3" stroke-linecap="round"/>
<circle cx="51.0848" cy="45.7098" r="3.91927" stroke="#284180" stroke-width="3" stroke-linecap="round"/>
<path d="M56.5718 51.1968L54.2202 48.8452" stroke="#284180" stroke-width="3" stroke-linecap="round"/>
</svg>
