<svg width="105" height="90" viewBox="0 0 105 90" fill="none" xmlns="http://www.w3.org/2000/svg">
<path d="M23.5558 49.8851L28.9373 57.036C30.2657 58.8011 32.7735 59.1552 34.5386 57.8268L41.0169 52.9515C42.3408 51.9552 42.6063 50.0744 41.61 48.7505L35.5321 40.6742C34.8679 39.7916 35.0449 38.5377 35.9275 37.8735L37.9049 36.3854C38.7875 35.7212 40.0414 35.8983 40.7055 36.7808L46.7835 44.8572C47.7798 46.181 49.6606 46.4466 50.9845 45.4503L57.4628 40.575C59.2279 39.2466 59.582 36.7388 58.2536 34.9737L52.8721 27.8228" stroke="#284180" stroke-width="3" stroke-linecap="round"/>
<path d="M35.6271 40.801L23.5557 49.8855L17.3617 31.4044C17.1616 30.8072 17.2068 30.155 17.4876 29.5912V29.5912C18.2745 28.011 20.4493 27.8113 21.5108 29.2218L21.7959 29.6007" stroke="#284180" stroke-width="3" stroke-linecap="round" stroke-linejoin="round"/>
<path d="M40.8007 36.9075L52.8721 27.823L36.8283 16.7545C36.3099 16.3969 35.6706 16.2598 35.0511 16.3735V16.3735C33.3148 16.6921 32.5208 18.7266 33.5823 20.1372L33.8674 20.516" stroke="#284180" stroke-width="3" stroke-linecap="round" stroke-linejoin="round"/>
<path d="M66.1555 57.5957L68.0106 49.3006C69.0352 44.7194 73.5796 41.8361 78.1608 42.8606V42.8606C82.7421 43.8852 85.6254 48.4296 84.6008 53.0108L82.7457 61.3059" stroke="#284180" stroke-width="3" stroke-linecap="round"/>
<path d="M58.153 53.0316C58.6745 51.3644 58.9353 50.5307 59.6108 50.1405C60.2863 49.7503 61.1387 49.941 62.8436 50.3222L88.8403 56.1361C90.5451 56.5174 91.3976 56.708 91.8425 57.3488C92.2875 57.9896 92.1683 58.8549 91.9299 60.5855L89.2372 80.1352C89.0984 81.1427 89.029 81.6465 88.6686 81.8967C88.3082 82.147 87.8119 82.036 86.8194 81.814L53.7339 74.4148C52.7413 74.1929 52.2451 74.0819 52.0256 73.7019C51.8061 73.322 51.9579 72.8367 52.2616 71.866L58.153 53.0316Z" stroke="#284180" stroke-width="3"/>
</svg>
