<svg width="11" height="19" viewBox="0 0 11 19" fill="none" xmlns="http://www.w3.org/2000/svg">
<path fill-rule="evenodd" clip-rule="evenodd" d="M0.338046 0.273522C0.520265 0.0979107 0.761966 0 1.01326 0C1.26455 0 1.50625 0.0979107 1.68847 0.273522L9.58718 8.00947C9.76399 8.17999 9.90477 8.38523 10.001 8.6127C10.0972 8.84017 10.1468 9.08512 10.1468 9.33265C10.1468 9.58019 10.0972 9.82514 10.001 10.0526C9.90477 10.2801 9.76399 10.4853 9.58718 10.6558L1.63128 18.4489C1.26231 18.8093 0.664583 18.814 0.29008 18.4582C0.199411 18.3735 0.126876 18.2707 0.0769787 18.1564C0.0270815 18.042 0.000886917 17.9184 2.19345e-05 17.7933C-0.000843048 17.6682 0.0236397 17.5443 0.07195 17.4292C0.12026 17.3141 0.191367 17.2103 0.280855 17.1243L7.56154 9.99401C7.65001 9.90874 7.72047 9.80609 7.76861 9.69232C7.81676 9.57854 7.84159 9.45601 7.84159 9.33218C7.84159 9.20836 7.81676 9.08583 7.76861 8.97205C7.72047 8.85827 7.65001 8.75563 7.56154 8.67036L0.338967 1.59623C0.250516 1.51105 0.180079 1.40848 0.131946 1.29478C0.0838118 1.18108 0.0589886 1.05863 0.0589886 0.934878C0.0589886 0.811128 0.0838118 0.688674 0.131946 0.574974C0.180079 0.461274 0.249595 0.358707 0.338046 0.273522Z" fill="black"/>
</svg>
