<?xml version="1.0" encoding="utf-8"?>
<!-- Generator: Adobe Illustrator 27.5.0, SVG Export Plug-In . SVG Version: 6.00 Build 0)  -->
<svg version="1.1" xmlns="http://www.w3.org/2000/svg" xmlns:xlink="http://www.w3.org/1999/xlink" x="0px" y="0px"
	 viewBox="0 0 500 500" style="enable-background:new 0 0 500 500;" xml:space="preserve">
<g id="BACKGROUND">
	<linearGradient id="SVGID_1_" gradientUnits="userSpaceOnUse" x1="250" y1="57.6665" x2="250" y2="239.0045">
		<stop  offset="0" style="stop-color:#6594FF"/>
		<stop  offset="1" style="stop-color:#C7F5FF"/>
	</linearGradient>
	<rect style="fill:url(#SVGID_1_);" width="500" height="500"/>
</g>
<g id="OBJECTS">
	<g>
		<defs>
			<rect id="SVGID_00000105393045594425354290000010143014312200092345_" width="500" height="500"/>
		</defs>
		<clipPath id="SVGID_00000138549834518376340580000001148008642265463737_">
			<use xlink:href="#SVGID_00000105393045594425354290000010143014312200092345_"  style="overflow:visible;"/>
		</clipPath>
		<g style="clip-path:url(#SVGID_00000138549834518376340580000001148008642265463737_);">
			<path style="fill:#567C78;" d="M421.59,279.512c-0.144-0.432-22.19-31.555-19.308-53.024c1.009,0.288,1.441,0.72,1.441,0.72
				s-0.576,24.207,21.613,50.575C422.31,280.233,421.59,279.512,421.59,279.512z"/>
			<path style="fill:#567C78;" d="M407.149,221.927c3.691-0.138,11.219-1.046,15.161-5.093c-8.933-6.196-19.02,3.458-19.02,3.458
				s8.357-12.103,10.519-20.461c-10.086,1.153-15.228,12.735-14.023,22.706c-5.15-9.643-19.406-10.747-25.457,5.103
				c4.853-3.04,9.404-3.88,13.214-3.736l0.738-1.476l0.246,1.535c0.277,0.023,0.547,0.052,0.815,0.085l2.117-3.811l-1.063,3.963
				c4.872,0.835,7.967,3.051,7.967,3.051s-11.93,5.578-15.676,18.546c5.817-0.485,9.979-2.046,12.959-4.041l-0.461-1.903
				l1.553,1.109c0.575-0.45,1.102-0.915,1.579-1.391l-1.488-0.595h2.053c4.364-4.805,4.266-10.326,4.266-10.326
				s3.002,1.741,6.47,3.716l2.662-4.348l-1.855,4.806c0.723,0.41,1.455,0.825,2.179,1.232l1.429-0.559l0.557,1.671
				c2.397,1.333,4.42,2.421,5.128,2.703C421.309,224.909,411.6,222.357,407.149,221.927z"/>
		</g>
		<g style="clip-path:url(#SVGID_00000138549834518376340580000001148008642265463737_);">
			<path style="fill:#567C78;" d="M438.493,190.98c-2.941,2.807-9.435,8.05-15.653,8.056c1.966-11.804,17.324-12.354,17.324-12.354
				s-15.964-2.693-24.217-7.401c8.65-7.074,21.734-2.244,28.678,6.359c-3.657-11.464,6.411-23.56,23.562-16.173
				c-6.122,1.497-10.278,4.443-13.088,7.56l-1.731-0.55l1.023,1.372c-0.194,0.236-0.379,0.472-0.558,0.708l-4.632-1.254l3.943,2.202
				c-3.08,4.485-3.707,8.627-3.707,8.627s13.556-5.133,26.664,1.862c-4.846,4.218-9.272,6.305-13.134,7.125l-1.148-1.824
				l-0.316,2.077c-0.797,0.109-1.568,0.168-2.309,0.179l0.672-1.631l-1.576,1.62c-7.141-0.243-11.421-4.558-11.421-4.558
				s-0.93,3.705-2.033,7.957l-5.473-1.236l5.216,2.224c-0.231,0.885-0.466,1.781-0.7,2.665l-1.538,0.699l0.891,1.722
				c-0.788,2.915-1.482,5.345-1.802,6.121C429.981,204.442,435.417,194.822,438.493,190.98z"/>
			<path style="fill:#567C78;" d="M445.779,186.876c0,0,3.989,42.022,1.064,82.981c1.596,1.862,3.99-0.532,3.99-0.532
				s0.798-50.799-2.926-79.789"/>
		</g>
		<path style="clip-path:url(#SVGID_00000138549834518376340580000001148008642265463737_);fill:#FFFFFF;" d="M-2.33,265.104
			c0,0,24.262-44.693,75.153-47.924c50.891-3.231,67.46,38.232,67.46,38.232s11.835-11.846,28.404-8.616
			c16.569,3.231,13.61,17.231,13.61,17.231s10.07-3.156,10.652,7.539c2.245-7.112,8.876-14.539,21.303-14.539
			s25.445,9.154,23.078,19.924c7.101-7,17.161,0.539,17.161,0.539s-8.876-17.231,0.592-27.462
			c9.468-10.231,34.322-16.693,43.79-2.154c9.468,14.539,0,26.924,0,26.924s11.835-3.231,15.385,4.308
			c5.918-4.846,36.689-14.539,39.056,15.616c14.202,0,21.303,5.385,25.445,14.539c-13.61,7-381.68-1.615-381.68-1.615L-2.33,265.104
			z"/>
		
			<linearGradient id="SVGID_00000083791597334671314160000000798262653982483860_" gradientUnits="userSpaceOnUse" x1="94.6761" y1="290.9501" x2="95.3695" y2="327.7055">
			<stop  offset="0" style="stop-color:#FFD6A5"/>
			<stop  offset="1" style="stop-color:#FFFADD"/>
		</linearGradient>
		
			<path style="clip-path:url(#SVGID_00000138549834518376340580000001148008642265463737_);fill:url(#SVGID_00000083791597334671314160000000798262653982483860_);" d="
			M25.758,307.525c0,0,19.859-11.779,60.085-13.858s78.415,15.937,78.415,15.937S51.218,326.233,25.758,307.525z"/>
		<g style="clip-path:url(#SVGID_00000138549834518376340580000001148008642265463737_);">
			<defs>
				<rect id="XMLID_1_" x="-12.893" y="307.044" width="519.496" height="198.336"/>
			</defs>
			
				<linearGradient id="XMLID_00000069397461221928767770000001734455003152302762_" gradientUnits="userSpaceOnUse" x1="246.8553" y1="311" x2="246.8553" y2="347.7211">
				<stop  offset="0" style="stop-color:#6181FF"/>
				<stop  offset="1" style="stop-color:#8BD9FF"/>
			</linearGradient>
			<use xlink:href="#XMLID_1_"  style="overflow:visible;fill:url(#XMLID_00000069397461221928767770000001734455003152302762_);"/>
			<clipPath id="XMLID_00000005985423803586872140000005311733633571338381_">
				<use xlink:href="#XMLID_1_"  style="overflow:visible;"/>
			</clipPath>
			<path style="opacity:0.49;clip-path:url(#XMLID_00000005985423803586872140000005311733633571338381_);fill:#FFFFFF;" d="
				M-21.696,370.18c25.773-0.419,51.6-0.838,77.309,0.371c35.667,1.677,71.303,6.481,106.886,4.225
				c8.951-0.568,18.118-1.652,25.592-4.762c-7.881-0.048-15.762-0.096-23.644-0.145c-10.26-0.063-20.524-0.126-30.77-0.458
				c-33.92-1.102-67.463-5.156-101.389-6.183c-15.908-0.482-31.936-0.253-47.704,1.217c-10.312,0.962-28.576,1.907-35.928,7.029
				C-41.556,371.287-31.603,370.341-21.696,370.18z"/>
			<path style="opacity:0.14;clip-path:url(#XMLID_00000005985423803586872140000005311733633571338381_);fill:#FFFFFF;" d="
				M-11.75,344.1c29.332-0.162,58.726-0.324,87.984,0.144c40.592,0.65,81.149,2.51,121.647,1.636
				c10.187-0.22,20.62-0.64,29.127-1.844c-8.969-0.019-17.939-0.037-26.909-0.056c-11.677-0.024-23.358-0.049-35.019-0.178
				c-38.604-0.427-76.779-1.997-115.39-2.395c-18.105-0.187-36.346-0.098-54.292,0.471c-11.736,0.372-32.522,0.738-40.889,2.722
				C-34.353,344.529-23.026,344.162-11.75,344.1z"/>
			<path style="opacity:0.14;clip-path:url(#XMLID_00000005985423803586872140000005311733633571338381_);fill:#FFFFFF;" d="
				M189.956,338.698c14.506-0.162,29.042-0.324,43.512,0.144c20.074,0.649,40.131,2.51,60.159,1.636
				c5.038-0.22,10.197-0.64,14.404-1.844c-4.436-0.019-8.871-0.037-13.307-0.056c-5.775-0.024-11.551-0.049-17.318-0.177
				c-19.091-0.427-37.97-1.997-57.065-2.395c-8.953-0.187-17.975-0.098-26.849,0.471c-5.804,0.372-16.083,0.739-20.221,2.722
				C178.778,339.127,184.38,338.761,189.956,338.698z"/>
			<path style="clip-path:url(#XMLID_00000005985423803586872140000005311733633571338381_);fill:#FFFFFF;" d="M324.454,374.217
				c-6.985,0.037-13.933-0.846-20.894-1.403c-11.558-0.925-23.191-0.948-34.76-0.072c24.572,2.766,49.321,5.535,73.994,3.597
				c8.41-0.661,16.884-1.866,25.234-0.728C355.564,368.368,338.173,374.144,324.454,374.217z"/>
			<path style="opacity:0.49;clip-path:url(#XMLID_00000005985423803586872140000005311733633571338381_);fill:#FFFFFF;" d="
				M188.499,354.001c-34.147-0.067-68.276,3.736-102.377,2.151c15.767,2.719,31.957,3.485,47.959,2.27
				c12.341-0.938,24.819-3.042,37.008-1.079c-2.01,0.775-4.019,1.551-6.029,2.326c18.459-2.378,37.342-2.125,55.712,0.745
				c-0.134,0.865-0.269,1.73-0.403,2.595c12.165,2.451,24.841,1.109,37.221-0.243c4.018-0.439,8.035-0.878,12.053-1.317
				c7.868-0.86,15.736-1.719,23.604-2.579c6.743-0.737,15.849-0.411,22.012-2.633c-3.158-3.553-22.799,0.372-28.119,0.525
				c-10.933,0.316-21.876,0.113-32.803-0.285C232.39,355.677,210.475,354.044,188.499,354.001z"/>
			<path style="clip-path:url(#XMLID_00000005985423803586872140000005311733633571338381_);fill:#FFFFFF;" d="M186.698,393.346
				c13.591-8.117,29.448-11.85,45.241-12.919c15.794-1.069,31.641,0.414,47.381,2.099c21.789,2.332,43.536,5.055,65.228,8.165
				c-3.199,2.669-7.674,3.085-11.84,3.124c-30.967,0.293-61.233-13.59-92.027-10.31c-16.316,1.738-32.074,8.415-44.671,18.93"/>
			<path style="opacity:0.4;clip-path:url(#XMLID_00000005985423803586872140000005311733633571338381_);fill:#FFFFFF;" d="
				M339.535,299.703c-13.717-0.258-19.153,6.152-32.776,7.297c-30.546,2.567-50.154,5.672-49.828,7.673
				c0.435,2.673,4.381,3.949,7.752,4.492c21.127,3.398,58.13,5.279,80.427,5.655c1.145,0.019-26.016,2.521-26.584,6.782
				c-0.382,2.867,11.843,6.724,15.337,7.384c14.531,2.746,20.328,3.043,34.934,5.964c13.139,2.628,25.645,2.669,36.764,5.788
				c2.118,0.594,4.624,1.99,3.844,3.642c-0.341,0.722-1.234,1.178-2.083,1.566c-8.453,3.858-18.127,6.071-25.923,10.699
				c-1.443,0.857-2.853,1.833-3.601,3.124c-1.295,2.232-0.278,4.959,1.738,6.835c2.016,1.876,4.865,3.064,7.686,4.128
				c20.426,7.701,43.408,11.201,66.033,10.056c15.79-0.799,32.551-4.393,42.443-14.059c7.386-7.217,9.849-16.77,10.742-25.991
				c0.879-9.078,0.268-18.747-6.006-26.413c-9.221-11.267-27.734-15.064-44.632-17.091c-31.579-3.787-63.602-4.591-95.534-5.388"/>
			<path style="clip-path:url(#XMLID_00000005985423803586872140000005311733633571338381_);fill:#FFFFFF;" d="M453.422,359.663
				c-8.577,1.74-17.155,3.479-25.732,5.219c-2.602,0.528-5.494,1.249-6.888,3.508c6.717,4.534,16.636,2.43,22.761,7.737
				c-1.372,0.442-2.653,1.167-3.739,2.116c8.634-1.124,17.281,1.251,25.871,2.675c12.83,2.128,26.009,2.138,38.843,0.03
				c2.281-0.375,4.724-0.909,6.267-2.631c0.406-0.453,0.745-1.013,0.741-1.62c-0.004-0.644-0.389-1.224-0.826-1.698
				c-1.396-1.513-3.377-2.322-5.302-3.048c-13.147-4.959-26.931-8.226-40.905-9.694"/>
			<path style="clip-path:url(#XMLID_00000005985423803586872140000005311733633571338381_);fill:#FFFFFF;" d="M353.175,330.181
				c-2.604-0.425-19.881-0.568-17.893,3.692c0.852,4.26,47.247,9.733,72.425,11.361c10.486,0.678,24.994,3.408,37.49,3.692
				c-0.772,0.323-10.305,3.085-11.077,3.408c10.252,0.745,14.762-2.41,24.994-1.42c8.805,0.852,28.921,2.726,36.058,1.153
				c-2.006-2.748-5.431-4.014-8.696-4.972c-7.305-2.145-14.819-3.485-22.332-4.717c-38.903-6.376-78.27-9.925-117.686-10.611
				c18.017-5.147,37.239-3.393,55.779-6.108c-22.185-1.34-44.331-3.822-66.555-4.02c-29.654-0.264-50.671-5.092-52.631-7.027
				c-0.839-0.828,0.54-2.267,1.672-2.597c14.859-4.339,62.819-1.802,90.937-1.397c7.813,0.113,15.615,0.566,23.372,1.504
				c8.473,1.025,17.631,2.842,23.893,8.801c1.149,1.094,2.191,2.319,3.503,3.212c1.837,1.25,4.068,1.757,6.255,2.15
				c20.197,3.627,42.541-0.071,60.069,10.597"/>
			<path style="clip-path:url(#XMLID_00000005985423803586872140000005311733633571338381_);fill:#FFFFFF;" d="M37.508,377.345
				c32.633,0.668,65.076,14.599,97.089,8.231c-35.795,8.115-72.97-3.57-109.661-2.612c-9.01,0.235-17.989,1.242-26.858,2.827
				c-2.907,0.519-20.64,6.686-15.693-0.983c2.852-4.422,20.391-4.489,25.517-5.223C17.705,378.181,27.591,377.142,37.508,377.345z"
				/>
		</g>
		<g style="clip-path:url(#SVGID_00000138549834518376340580000001148008642265463737_);">
			<defs>
				<path id="XMLID_2_" d="M540.758,294.992c-2,0-170-1.638-252.667,16.923c-5.333,10.918,107.442,6.285,105.333,11.464
					c-0.667,1.638-52,5.459-53.333,8.734c-2.119,5.204,136.667,15.831,138,18.014c1.333,2.184-50.667,9.826-52,16.376
					c-0.767,3.769,60,15.831,117.333,15.831C600.758,382.333,540.758,294.992,540.758,294.992z"/>
			</defs>
			
				<linearGradient id="XMLID_00000016055467822386079240000006123492917166027957_" gradientUnits="userSpaceOnUse" x1="450.9134" y1="446.8968" x2="419.0498" y2="290.2346">
				<stop  offset="0" style="stop-color:#FFD6A5"/>
				<stop  offset="1" style="stop-color:#FFFADD"/>
			</linearGradient>
			<use xlink:href="#XMLID_2_"  style="overflow:visible;fill:url(#XMLID_00000016055467822386079240000006123492917166027957_);"/>
			<clipPath id="XMLID_00000175292061968749297430000017186186905807760515_">
				<use xlink:href="#XMLID_2_"  style="overflow:visible;"/>
			</clipPath>
			<path style="opacity:0.1;clip-path:url(#XMLID_00000175292061968749297430000017186186905807760515_);fill:#A45184;" d="
				M473.443,363.658c-14.42,2.36-30.445,2.919-41.146,12.869c13.76,1.102,27.52,2.204,41.28,3.305
				c11.647,0.933,23.305,1.866,34.988,2.013c8.469,0.107,17.469-0.361,24.459-5.144c4.041-2.765,7.058-6.751,10.001-10.664
				c4.145-5.512,18.547-18.531,15.246-25.774c-4.321-9.482-16.294-2.672-21.997,0.312
				C518.472,349.894,494.142,363.658,473.443,363.658z"/>
			<path style="opacity:0.1;clip-path:url(#XMLID_00000175292061968749297430000017186186905807760515_);fill:#A45184;" d="
				M540.669,317.153c-11.463,3.664-23.4,4.86-35.257,6.039c-9.352,0.93,11.226,4.044,1.873,4.974
				c-22.372,2.225-75,2.251-97.082-2.429c21.752-8.942,47.885-2.595,67.025-17.435c-31.322,0.824-62.734-2.925-93.236-11.128
				c12.481-2.793,24.962-5.585,37.443-8.378c6.335-1.417,12.669-2.835,19.004-4.252c6.614-1.48,13.229-2.96,19.87-4.274
				c17.528-3.468,35.231-5.775,52.991-6.906c9.416-0.6,19.054-0.839,28.058,2.373c7.813,2.787,14.906,8.173,20.191,15.333
				c2.116,2.866,4.01,6.215,4.197,9.964c0.187,3.748-1.895,7.851-5.136,8.4"/>
		</g>
		<path style="clip-path:url(#SVGID_00000138549834518376340580000001148008642265463737_);fill:#FFFFFF;" d="M546.758,96.5h-222
			c0,0,21-11.5,49-9c-8-17.5,1.5-33.5,9-36s28-3,32.5,4s2.5,15,2.5,15s5.5-11,22.5-9s20.5,17,20.5,17s2.5-5,5.5-4.5s4.5,5.5,4.5,5.5
			s33,3.5,43,7.5C521.258,81,541.758,83,546.758,96.5z"/>
		<path style="clip-path:url(#SVGID_00000138549834518376340580000001148008642265463737_);fill:#FFFFFF;" d="M281.381,209.006
			H142.163c0,0,8.477-10.153,26.036-8.971c-5.017-8.279,5.509-18.944,9.736-21.323c8.723-4.908,20.67,2.269,20.8,2.494
			c1.023-0.207,8.023-7.707,16.582,3.284c10.661,0.946,12.132,16,12.132,16s1.531-1.664,3.412-1.427
			c1.881,0.237,2.859,1.9,2.859,1.9c2.997-7.383,19-13.559,26.772-0.443C265.196,197.683,278.245,202.62,281.381,209.006z"/>
		<g style="clip-path:url(#SVGID_00000138549834518376340580000001148008642265463737_);">
			<defs>
				<path id="XMLID_3_" d="M521.765,371.451c0,0-62.997,14.245-174.929,18.375c-111.932,4.13-338.627-20.883-377.082,14.756
					c13.329,26.342,11.328,106.417,11.328,106.417L518.758,509L521.765,371.451z"/>
			</defs>
			
				<linearGradient id="XMLID_00000051346574235514264240000014677115561179830451_" gradientUnits="userSpaceOnUse" x1="266.7656" y1="518.1086" x2="228.9825" y2="332.3423" gradientTransform="matrix(0.9997 -0.025 0.025 0.9997 -10.6902 6.2784)">
				<stop  offset="0" style="stop-color:#FFD6A5"/>
				<stop  offset="1" style="stop-color:#FFFADD"/>
			</linearGradient>
			<use xlink:href="#XMLID_3_"  style="overflow:visible;fill:url(#XMLID_00000051346574235514264240000014677115561179830451_);"/>
			<clipPath id="XMLID_00000107550401362649761040000005163898207700882346_">
				<use xlink:href="#XMLID_3_"  style="overflow:visible;"/>
			</clipPath>
			<path style="opacity:0.1;clip-path:url(#XMLID_00000107550401362649761040000005163898207700882346_);fill:#A45184;" d="
				M69.464,407.904c27.062,3.912,53.301,12.348,80.321,16.543c41.127,6.386,83.072,2.825,124.538-0.75
				c-2.014,4.758-6.656,5.831-11.807,6.231c-36.488,2.829-74.903,5.642-111.007-0.347c-29.884-4.958-59.162-15.923-89.428-14.669
				c-18.872,0.782-37.186,6.307-55.818,9.407c-10.501,1.747-21.267,2.674-31.889,1.576c-7.671-0.792-26.359-5.285-10.007-10.168
				c21.696-6.48,44.268-9.955,66.91-10.279C44.043,405.264,56.826,406.077,69.464,407.904z"/>
			<path style="opacity:0.1;clip-path:url(#XMLID_00000107550401362649761040000005163898207700882346_);fill:#A45184;" d="
				M175.425,440.333c13.031-0.474,25.647,5.076,37.366,10.817c-33.122,7.897-70.862,5.559-104.01-1.282
				c-0.471-2.687-1.451-3.452-3.471-5.289c5.647-3.634,16.373-7.027,22.782-6.247C143.227,440.177,160.15,440.889,175.425,440.333z"
				/>
			<path style="opacity:0.1;clip-path:url(#XMLID_00000107550401362649761040000005163898207700882346_);fill:#A45184;" d="
				M-43.135,473.589c28.763-5.524,58.33-0.303,87.435,2.968c54.373,6.112,109.515,5.349,163.698-2.264
				c16.115-2.264,32.548-5.129,48.535-2.088c-4.052,5.284-9.926,9.144-16.385,10.766c43.195,7.005,87.959,5.861,129.646,19.165
				c2.621,0.836,5.667,2.248,5.977,4.981c0.345,3.047-2.946,5.12-5.79,6.267c-12.419,5.009-25.658,7.658-38.896,9.674
				c-53.582,8.161-108.112,6.343-162.246,9.008c-33.466,1.648-66.95,5.016-100.412,3.293c-33.462-1.722-67.393-8.86-95.803-26.625"
				/>
			<path style="opacity:0.1;clip-path:url(#XMLID_00000107550401362649761040000005163898207700882346_);fill:#A45184;" d="
				M285.576,400.896c-29.98,3.617-60.5,11.624-89.901,4.734c35.082,17.443,79.175-8.967,115.792,4.97
				c-2.638,1.443-5.275,2.885-7.913,4.328c16.62,1.826,33.214-2.419,49.721-5.075c22.632-3.641,45.741-4.31,68.546-1.984
				c31.366,3.2,62.051,11.873,93.64,13.093c15.027,0.581,31.401-0.151,45.654-5.422c5.623-2.08,19.269-11.329,8.398-15.743
				c-8.085-3.283-20.299-0.109-28.355,1.77c-15.515,3.62-31.112,4.685-47.026,4.977c-32.883,0.603-65.673-2.487-98.421-5.019
				C359.099,398.694,322.161,396.483,285.576,400.896z"/>
			<path style="opacity:0.1;clip-path:url(#XMLID_00000107550401362649761040000005163898207700882346_);fill:#A45184;" d="
				M563.631,427.296c-30.996,6.263-62.669,9.167-94.286,8.645c-44.903-0.741-89.946-8.352-134.515-2.828
				c-16.845,2.088-34.351,6.52-46.522,18.351c-1.697,1.649-3.391,3.913-2.68,6.17c0.64,2.034,2.915,2.997,4.955,3.617
				c6.939,2.11,14.189,3.196,21.442,3.213c6.03,0.014,13.232-0.172,16.649,4.796c-3.723,2.221-7.447,4.442-11.17,6.663
				c10.74-0.273,21.48-0.547,32.219-0.82c3.799-0.097,7.759-0.161,11.194,1.463c6.1,2.884,8.661,10.001,12.692,15.413
				c10.083,13.539,29.057,16,45.903,17.093c41.901,2.719,84.46,3.869,125.391-5.501c9.554-2.187,19.132-5.009,27.378-10.308
				c8.246-5.299,15.099-13.393,17.027-23.003c2.816-14.033-5.147-27.997-14.599-38.743"/>
			<path style="opacity:0.1;clip-path:url(#XMLID_00000107550401362649761040000005163898207700882346_);fill:#A45184;" d="
				M554.924,437.872c-10.906,10.592-26.694,14.645-41.88,15.348c-15.187,0.703-30.364-1.514-45.567-1.475
				c-15.203,0.038-31.078,2.621-43.275,11.695c-1.321,0.983-2.697,2.802-1.645,4.07c0.334,0.403,0.842,0.611,1.329,0.803
				c47.84,18.826,102.688,19.171,150.762,0.949c2.966-1.124,5.995-2.374,8.228-4.627c2.232-2.253,3.484-5.773,2.215-8.68"/>
		</g>
		<g style="clip-path:url(#SVGID_00000138549834518376340580000001148008642265463737_);">
			<defs>
				<path id="XMLID_4_" d="M47.337,299.497c0,0-1.934-3.869,0.352-10.551c-2.374,3.253-6.507,5.188-10.287,2.814
					c0.616-2.99,9.056-6.155,9.056-6.155s-7.298,1.231-10.793-1.081c1.56-2.173,7.363-2.788,11.496-0.678
					c2.756-3.21,6.203-4.972,8.593-4.664c-0.696-6.514,5.178-12.131,9.168-11.747c-4.831-2.603-7.285-7.02-7.002-8.774
					c3.59,0.365,7.159,5.443,7.159,5.443s1.294-6.224,4.186-8.052c0.28,2.566-1.368,7.792-1.368,7.792s4.666-5.477,8.828-4.496
					c-2.374,3.62-3.648,5.132-3.648,5.132s4.946-2.91,8.299-1.771c-0.133-4.593,3.305-5.638,5.346-2.891
					c5.204-2.984,13.537,2.849,11.401,8.981c4.048-5.113,7.093-5.952,7.093-5.952l-1.393,4.059c0,0,2.891-1.828,6.235-0.493
					c3.344,1.335,7.103,6.619,5.111,10.65c2.128-2.65,4.199,0.197,4.199,0.197s3.949-7.278,8.329-6.68
					c-1.938,2.855-4.13,6.877-6.557,7.352c4.78,0.617,5.596,4.584,5.596,4.584s-4.153-1.177-5.097-2.4
					c0.897,1.112,2.334,4.13,2.831,7.989c3.417-0.232,5.107,2.204,3.842,3.519c1.999,0.094,7.677,4.617,4.448,9.375
					C110.222,302.97,93.85,291.32,47.337,299.497z"/>
			</defs>
			
				<linearGradient id="XMLID_00000107564688019478956240000016245980253043407748_" gradientUnits="userSpaceOnUse" x1="78.2907" y1="306.5865" x2="93.2482" y2="272.018">
				<stop  offset="0" style="stop-color:#70908D"/>
				<stop  offset="1" style="stop-color:#70B28F"/>
			</linearGradient>
			<use xlink:href="#XMLID_4_"  style="overflow:visible;fill:url(#XMLID_00000107564688019478956240000016245980253043407748_);"/>
			<clipPath id="XMLID_00000103256350766194740220000010178751228296235701_">
				<use xlink:href="#XMLID_4_"  style="overflow:visible;"/>
			</clipPath>
			<path style="opacity:0.1;clip-path:url(#XMLID_00000103256350766194740220000010178751228296235701_);fill:#A45184;" d="
				M47.385,275.926c1.94-1.191,3.967-2.343,6.207-2.746s4.76,0.068,6.315,1.729c1.86,1.988,1.889,5.026,1.702,7.742
				c0.568-1.817,3.757-1.762,4.262,0.073c-0.014-2.888,2.209-5.75,5.081-6.059s5.794,2.409,5.344,5.262
				c1.058-0.554,2.396,0.429,2.661,1.594c0.266,1.165-0.191,2.36-0.64,3.467c1.57-0.892,3.878,0.326,4.028,2.125
				c0.527-1.232,1.054-2.463,1.581-3.695c0.191-0.445,0.416-0.928,0.854-1.133c0.439-0.206,1.107,0.111,1.023,0.588
				c-0.148-2.416,1.02-4.978,3.173-6.085c2.153-1.106,5.196-0.357,6.262,1.816c1.087-1.228,2.917-1.737,4.482-1.248
				s2.778,1.951,2.972,3.579c1.948-1.669,5.06-1.783,7.125-0.261c2.065,1.522,2.878,4.528,1.86,6.883
				c1.638-1.117,4.283,0.131,4.461,2.106c0.925-5.084,6.72-7.741,11.874-8.11c7.571-0.542,16.108,2.911,18.634,10.069
				c2.242,6.352-1.066,13.67-6.385,17.804c-5.319,4.134-12.207,5.651-18.909,6.325c-9.74,0.98-19.563,0.427-29.332-0.206
				c-14.93-0.968-29.973-2.144-44.35-6.285c-5.25-1.513-10.561-3.522-14.447-7.363c-3.886-3.84-6.003-9.922-3.831-14.935"/>
			<path style="opacity:0.1;clip-path:url(#XMLID_00000103256350766194740220000010178751228296235701_);fill:#A45184;" d="
				M54.327,290.185c0.776-0.602,1.712-1.092,2.692-1.023c1.161,0.081,2.113,0.911,2.97,1.698c0.155-2.536,2.271-4.814,4.789-5.155
				c2.518-0.341,5.163,1.293,5.986,3.697c0.13,0.38,0.31,0.853,0.71,0.88c0.154,0.01,0.302-0.055,0.45-0.101
				c1.099-0.343,2.299,0.414,2.849,1.425c0.55,1.011,0.607,2.208,0.653,3.358c1.473-0.285,3.089,0.446,3.846,1.741
				c0.757,1.295,0.603,3.062-0.368,4.206c-0.784,0.924-1.968,1.398-3.122,1.769c-5.237,1.684-10.916,1.917-16.287,0.753
				c-2.19-0.475-4.626-1.105-6.663-2.07c-1.725-0.817-2.075-2.422-2.012-4.245C50.912,294.45,52.213,291.826,54.327,290.185z"/>
		</g>
		
			<linearGradient id="SVGID_00000016754407133003707740000012680170430865602433_" gradientUnits="userSpaceOnUse" x1="-77.7499" y1="354.558" x2="-68.4967" y2="333.1729">
			<stop  offset="0" style="stop-color:#567C78"/>
			<stop  offset="1" style="stop-color:#56A362"/>
		</linearGradient>
		
			<rect x="-85.742" y="327.5" style="clip-path:url(#SVGID_00000138549834518376340580000001148008642265463737_);fill:url(#SVGID_00000016754407133003707740000012680170430865602433_);" width="27.5" height="27.5"/>
		<g style="clip-path:url(#SVGID_00000138549834518376340580000001148008642265463737_);">
			<defs>
				<path id="XMLID_5_" d="M385.358,300.286c0,0-4.63-11.575,10.252-12.567c-1.654-4.299,2.646-5.291,2.646-5.291
					s-3.307-7.276,2.315-11.244c5.622-3.968,8.598,0.661,8.598,0.661s5.291-13.89,25.795-8.268c0.992-4.299,6.614-7.937,6.614-7.937
					s2.976,6.283,0.992,9.591c5.622-3.638,16.535,3.307,16.535,3.307s8.929-36.378,47.292-36.047
					c17.197,45.969,5.291,68.788,5.291,68.788s-49.276,2.315-62.504,1.984c2.646-4.299,4.961-6.284,4.961-6.284L385.358,300.286z"/>
			</defs>
			
				<linearGradient id="XMLID_00000131342404407256957330000007726205522912764301_" gradientUnits="userSpaceOnUse" x1="441.7615" y1="312.7958" x2="469.984" y2="247.5706">
				<stop  offset="0" style="stop-color:#567C78"/>
				<stop  offset="1" style="stop-color:#56A362"/>
			</linearGradient>
			<use xlink:href="#XMLID_5_"  style="overflow:visible;fill:url(#XMLID_00000131342404407256957330000007726205522912764301_);"/>
			<clipPath id="XMLID_00000116207718057910830670000009987524863905814931_">
				<use xlink:href="#XMLID_5_"  style="overflow:visible;"/>
			</clipPath>
			<path style="opacity:0.1;clip-path:url(#XMLID_00000116207718057910830670000009987524863905814931_);fill:#A45184;" d="
				M420.802,304.915c-0.077-5.084,0.793-10.531,4.255-14.255c3.462-3.723,10.158-4.69,13.493-0.853
				c0.657-1.986,1.455-4.132,3.254-5.199c1.799-1.067,4.785-0.093,4.755,1.999c1.644-0.751,3.848,0.436,4.125,2.222
				c2.175-4.216,5.278-8.119,9.495-10.29c4.217-2.172,9.669-2.316,13.511,0.466c-5.074-5.722-5.911-14.794-1.971-21.347
				c2.135-3.552,5.415-6.259,8.78-8.678c6.939-4.989,15.331-9.217,23.728-7.626c5.667,1.074,10.596,4.738,14.197,9.244
				c9.751,12.2,10.141,29.77,5.391,44.648c-1.827,5.722-4.467,11.411-9.015,15.335c-3.625,3.128-8.2,4.91-12.74,6.432
				c-11.527,3.865-23.488,6.433-35.586,7.639c-10.95,1.092-22.235,1.034-32.674-2.449c-10.439-3.483-19.992-10.792-24.178-20.969"/>
		</g>
		<g style="clip-path:url(#SVGID_00000138549834518376340580000001148008642265463737_);">
			<g>
				<defs>
					<path id="XMLID_13_" d="M-48.812,460.963c0-2.185,0.728-252.679,148.549-361.906c-5.097-9.466-10.195-9.466-10.195-9.466
						S-60.463,182.07-64.832,456.594"/>
				</defs>
				
					<linearGradient id="XMLID_00000088848096889417330380000011728287361300629661_" gradientUnits="userSpaceOnUse" x1="73.6999" y1="170.9449" x2="104.2118" y2="122.5468">
					<stop  offset="0" style="stop-color:#F66661"/>
					<stop  offset="1" style="stop-color:#A75E6D"/>
				</linearGradient>
				
					<use xlink:href="#XMLID_13_"  style="overflow:visible;fill:url(#XMLID_00000088848096889417330380000011728287361300629661_);"/>
				<clipPath id="XMLID_00000093140613758931180970000004354474016611592346_">
					<use xlink:href="#XMLID_13_"  style="overflow:visible;"/>
				</clipPath>
				<path style="opacity:0.1;clip-path:url(#XMLID_00000093140613758931180970000004354474016611592346_);fill:#A45184;" d="
					M108.283,108.75c6.818-6.215,12.938-14.647,11.933-23.817c-1.022-9.326-9.528-16.56-18.688-18.59
					c-9.16-2.03-18.744,0.198-27.53,3.488c-19.023,7.123-59.39,28.048-41.549,53.816C48.56,146.915,93.104,122.588,108.283,108.75z"
					/>
				<path style="opacity:0.1;clip-path:url(#XMLID_00000093140613758931180970000004354474016611592346_);fill:#A45184;" d="
					M62.996,157.096c-5.578-5.019-11.976-9.027-18.338-13.007c-2.517-1.575-5.282-3.437-8.263-3.904
					c-0.177,4.671,5.819,6.878,9.134,9.012c2.741,1.765,5.613,3.324,8.585,4.661C56.397,154.884,61.237,155.514,62.996,157.096z"/>
				<path style="opacity:0.1;clip-path:url(#XMLID_00000093140613758931180970000004354474016611592346_);fill:#A45184;" d="
					M37.119,156.401c-1.63-1.923-18.448-18.91-19.17-14.018c-0.322,2.183,5.283,6.353,6.711,7.556
					c1.855,1.562,3.815,3.124,5.901,4.367C31.778,155.031,36.601,155.789,37.119,156.401z"/>
				<path style="opacity:0.1;clip-path:url(#XMLID_00000093140613758931180970000004354474016611592346_);fill:#A45184;" d="
					M46.857,176.412c-6.278-4.199-12.556-8.398-18.834-12.597c-2.881-1.927-13.835-11.794-17.341-10.175
					c-2.497,1.153,2.618,3.827,3.916,4.716c4.286,2.935,8.472,5.982,12.728,8.955c3.017,2.108,6.156,4.058,9.479,5.649
					C39.725,174.359,44.317,174.713,46.857,176.412z"/>
				<path style="opacity:0.1;clip-path:url(#XMLID_00000093140613758931180970000004354474016611592346_);fill:#A45184;" d="
					M28.63,183.771c-3.902-2.699-7.345-6.059-10.137-9.894c5.955,2.508,11.453,6.096,16.146,10.537
					c-0.185,0.276-0.369,0.551-0.554,0.827"/>
				<path style="opacity:0.1;clip-path:url(#XMLID_00000093140613758931180970000004354474016611592346_);fill:#A45184;" d="
					M0.977,177.716c3.719,3.315,8.027,5.966,12.661,7.792c-3.787-6.023-8.819-11.259-14.688-15.281"/>
				<path style="opacity:0.1;clip-path:url(#XMLID_00000093140613758931180970000004354474016611592346_);fill:#A45184;" d="
					M21.417,204.723c-3.762-1.508-7.564-3.037-10.87-5.381c-3.307-2.344-6.122-5.617-7.116-9.546
					c4.285,0.741,8.19,2.857,12.006,4.941c2.783,1.52,5.566,3.04,8.349,4.56c1.775,0.97,3.627,2.009,4.709,3.719"/>
				<path style="opacity:0.1;clip-path:url(#XMLID_00000093140613758931180970000004354474016611592346_);fill:#A45184;" d="
					M10.814,236.534c-3.762-1.508-7.564-3.037-10.87-5.381c-3.307-2.344-6.122-5.617-7.116-9.546
					c4.285,0.741,8.189,2.857,12.006,4.941c2.783,1.52,5.566,3.04,8.349,4.56c1.776,0.97,3.627,2.009,4.709,3.719"/>
				<path style="opacity:0.1;clip-path:url(#XMLID_00000093140613758931180970000004354474016611592346_);fill:#A45184;" d="
					M6.23,218.852c2.854,0.996,5.983,1.7,8.878,0.831c0.309-1.662-1.182-3.063-2.542-4.07c-2.925-2.166-22.891-16.424-24.805-12.378
					C-15.295,209.697,2.381,217.508,6.23,218.852z"/>
				<path style="opacity:0.1;clip-path:url(#XMLID_00000093140613758931180970000004354474016611592346_);fill:#A45184;" d="
					M13.159,252.528c-5.578-5.019-11.976-9.027-18.338-13.007c-2.517-1.575-5.282-3.437-8.263-3.904
					c-0.177,4.671,5.819,6.878,9.134,9.012c2.741,1.765,5.613,3.324,8.585,4.661C6.561,250.316,11.401,250.946,13.159,252.528z"/>
				<path style="opacity:0.1;clip-path:url(#XMLID_00000093140613758931180970000004354474016611592346_);fill:#A45184;" d="
					M-12.717,251.833c-1.63-1.923-18.448-18.91-19.17-14.018c-0.323,2.183,5.283,6.353,6.711,7.556
					c1.855,1.562,3.815,3.124,5.901,4.367C-18.059,250.463-13.236,251.221-12.717,251.833z"/>
				<path style="opacity:0.1;clip-path:url(#XMLID_00000093140613758931180970000004354474016611592346_);fill:#A45184;" d="
					M-2.98,271.844c-6.278-4.199-12.556-8.398-18.834-12.597c-2.881-1.927-13.835-11.794-17.341-10.175
					c-2.497,1.153,2.618,3.827,3.916,4.717c4.286,2.935,8.472,5.982,12.728,8.955c3.017,2.108,6.156,4.058,9.479,5.649
					C-10.112,269.791-5.52,270.145-2.98,271.844z"/>
				<path style="opacity:0.1;clip-path:url(#XMLID_00000093140613758931180970000004354474016611592346_);fill:#A45184;" d="
					M-21.207,279.203c-3.902-2.699-7.345-6.059-10.137-9.894c5.955,2.508,11.453,6.096,16.146,10.537
					c-0.185,0.276-0.369,0.551-0.554,0.827"/>
				<path style="opacity:0.1;clip-path:url(#XMLID_00000093140613758931180970000004354474016611592346_);fill:#A45184;" d="
					M-48.86,273.148c3.718,3.315,8.027,5.966,12.661,7.793c-3.787-6.023-8.819-11.259-14.688-15.281"/>
				<path style="opacity:0.1;clip-path:url(#XMLID_00000093140613758931180970000004354474016611592346_);fill:#A45184;" d="
					M-17.285,303.336c-3.762-1.508-7.564-3.037-10.87-5.381c-3.307-2.344-6.122-5.617-7.116-9.546
					c4.285,0.741,8.19,2.857,12.006,4.941c2.783,1.52,5.566,3.04,8.349,4.56c1.776,0.97,3.627,2.009,4.709,3.719"/>
				<path style="opacity:0.1;clip-path:url(#XMLID_00000093140613758931180970000004354474016611592346_);fill:#A45184;" d="
					M-27.359,341.509c-3.762-1.508-7.564-3.037-10.87-5.381c-3.307-2.344-6.122-5.617-7.116-9.546
					c4.285,0.741,8.189,2.857,12.006,4.941c2.783,1.52,5.566,3.04,8.349,4.56c1.775,0.97,3.627,2.009,4.709,3.719"/>
				<path style="opacity:0.1;clip-path:url(#XMLID_00000093140613758931180970000004354474016611592346_);fill:#A45184;" d="
					M-40.425,315.874c2.854,0.996,5.983,1.7,8.878,0.831c0.309-1.662-1.182-3.063-2.542-4.07
					c-2.925-2.165-22.891-16.424-24.805-12.379C-61.951,306.719-44.275,314.531-40.425,315.874z"/>
			</g>
			<g>
				<defs>
					<path id="XMLID_6_" d="M114.301,57.916l5.461-13.107l8.269,3.832c6.021-5.326,12.702-9.372,19.992-11.156l0.866-5.054
						l0.499,4.742c1.106-0.225,2.225-0.394,3.358-0.509l2.333-9.33l0.549,9.153c6.518-0.107,13.464,1.659,20.813,5.924
						c-6.641-30.254-45.75-34.312-64.566-27.671c-18.817,6.641-52.76,68.624-21.768,93.713c0.851,0.689,10.958-28.718,28.684-50.151
						L114.301,57.916z"/>
				</defs>
				
					<linearGradient id="XMLID_00000106117135689912832340000016706465892448461983_" gradientUnits="userSpaceOnUse" x1="171.3707" y1="-11.8526" x2="88.944" y2="99.5419">
					<stop  offset="0" style="stop-color:#A9CE60"/>
					<stop  offset="1" style="stop-color:#568D73"/>
				</linearGradient>
				
					<use xlink:href="#XMLID_6_"  style="overflow:visible;fill:url(#XMLID_00000106117135689912832340000016706465892448461983_);"/>
				<clipPath id="XMLID_00000115495954082853578110000010540503453676280475_">
					<use xlink:href="#XMLID_6_"  style="overflow:visible;"/>
				</clipPath>
				<path style="opacity:0.1;clip-path:url(#XMLID_00000115495954082853578110000010540503453676280475_);fill:#A45184;" d="
					M79.133,116.264c0.69-24.672,10.663-48.05,21.17-70.384c3.309-7.033,6.813-14.208,12.5-19.507
					c0.982-0.915,2.058-1.786,3.338-2.188c1.465-0.46,9.363-2.371,10.885-2.168c6.696,0.89,7.073,3.888,13.769,4.777
					c-11.843,0.158-20.174-2.552-27.853,6.466c-3.296,3.87-9.837,14.1-11.778,18.798c-8.043,19.47-14.271,40.239-13.122,61.273"/>
			</g>
			<g>
				<defs>
					<path id="XMLID_7_" d="M81.911,104.66c0,0,42.848,13.052,82.714,4.111c-0.004-3.835,0.284-7.892,0.284-7.892l3.678,6.924
						c1.091-0.288,2.18-0.588,3.263-0.911l1.433-10.746l7.175,7.726c10.771-4.368,20.818-10.848,29.11-20.242
						C174.887,60.017,105.524,61.124,81.911,104.66z"/>
				</defs>
				
					<linearGradient id="XMLID_00000096047193666639226000000000963149961717105539_" gradientUnits="userSpaceOnUse" x1="226.6726" y1="70.6388" x2="111.3275" y2="98.5534">
					<stop  offset="0" style="stop-color:#A9CE60"/>
					<stop  offset="1" style="stop-color:#568D73"/>
				</linearGradient>
				
					<use xlink:href="#XMLID_7_"  style="overflow:visible;fill:url(#XMLID_00000096047193666639226000000000963149961717105539_);"/>
				<clipPath id="XMLID_00000137133980200207677600000011119314318029943731_">
					<use xlink:href="#XMLID_7_"  style="overflow:visible;"/>
				</clipPath>
				<path style="opacity:0.1;clip-path:url(#XMLID_00000137133980200207677600000011119314318029943731_);fill:#A45184;" d="
					M69.413,119.086C97.61,88.687,140.98,73.118,182.074,78.641c6.35,0.854,12.824,2.254,18.114,5.869
					c-2.076-5.162-7.883-7.635-13.231-9.169c-20.318-5.829-42.333-5.601-62.526,0.648c-20.193,6.248-38.489,18.494-51.964,34.78"/>
				<path style="opacity:0.06;clip-path:url(#XMLID_00000137133980200207677600000011119314318029943731_);fill:#A45184;" d="
					M89.484,86.076c8.245-2.784,17.625-2.432,26.109-0.225c8.483,2.207,16.192,6.158,23.465,10.477
					c5.032,2.988,9.987,6.242,13.512,10.513c3.525,4.271,5.479,9.743,3.935,14.793c-2.195,7.181-10.664,11.678-19,13.874
					c-12.223,3.219-25.623,3.028-37.774-0.38c-4.689-1.315-9.263-3.133-12.957-5.918c-7.609-5.737-10.49-14.737-11.747-23.317
					c-0.845-5.765-1.109-11.727,0.898-17.281c2.007-5.554,6.616-10.68,13.066-12.6"/>
			</g>
			<g>
				<defs>
					<path id="XMLID_11_" d="M-17.407,91.165c2.064,4.129,11.037,6.203,21.349,6.819l3.681-6.573l0.562,6.743
						c1.229,0.027,2.463,0.036,3.699,0.027l1.564-3.129l0.516,3.097c5.121-0.121,10.137-0.541,14.436-1.19l0.703-4.456l2.721,3.855
						c3.091-0.623,5.614-1.38,7.217-2.243c8.486,7.01,22.137,16.972,45.75,11.437C84.792,105.554,35.722,39.512-17.407,91.165z"/>
				</defs>
				
					<linearGradient id="XMLID_00000105405333602041254470000001574704340907167368_" gradientUnits="userSpaceOnUse" x1="40.2856" y1="93.7161" x2="129.1906" y2="125.8061">
					<stop  offset="0" style="stop-color:#A9CE60"/>
					<stop  offset="1" style="stop-color:#568D73"/>
				</linearGradient>
				
					<use xlink:href="#XMLID_11_"  style="overflow:visible;fill:url(#XMLID_00000105405333602041254470000001574704340907167368_);"/>
				<clipPath id="XMLID_00000142154103495851848140000009026913833027430049_">
					<use xlink:href="#XMLID_11_"  style="overflow:visible;"/>
				</clipPath>
				<path style="opacity:0.1;clip-path:url(#XMLID_00000142154103495851848140000009026913833027430049_);fill:#A45184;" d="
					M52.054,104.406c2.933,4.946,6.35,10.285,11.854,11.951c2.862-9.736,1.745-20.344-1.707-29.887
					c-2.5-6.913-6.179-13.331-10.363-19.354c-2.277-3.278-7.448-13.001-12.402-12.225c-10.102,1.583-1.756,22.715,0.234,26.975
					C43.302,89.639,47.682,97.034,52.054,104.406z"/>
			</g>
			<g>
				<defs>
					<path id="XMLID_12_" d="M37.935,26.968c-1.157,6.944-1.09,14.324-0.006,21.673l6.83-1.648l-6.236,5.16
						c0.534,2.78,1.214,5.542,2.027,8.267l6.029-1.049l-4.737,5.016c7.597,21.59,23.607,39.751,42.949,41.166
						C84.792,105.554,84.423,32.133,37.935,26.968z"/>
				</defs>
				
					<linearGradient id="XMLID_00000061447142548811300420000005223076587343706302_" gradientUnits="userSpaceOnUse" x1="51.5711" y1="45.202" x2="89.4479" y2="134.6331">
					<stop  offset="0" style="stop-color:#A9CE60"/>
					<stop  offset="1" style="stop-color:#568D73"/>
				</linearGradient>
				
					<use xlink:href="#XMLID_12_"  style="overflow:visible;fill:url(#XMLID_00000061447142548811300420000005223076587343706302_);"/>
				<clipPath id="XMLID_00000003811029353551733500000017848241207205728186_">
					<use xlink:href="#XMLID_12_"  style="overflow:visible;"/>
				</clipPath>
				<path style="opacity:0.1;clip-path:url(#XMLID_00000003811029353551733500000017848241207205728186_);fill:#A45184;" d="
					M44.609,78.878c6.902,5.675,15.203,9.636,23.956,11.432c-4.347-17.531-10.877-34.519-19.392-50.448
					c9.785,14.025,17.344,29.6,22.306,45.965c1.462-17.697-6.008-36.242,0.276-52.85c10.325,19.999,20.78,40.372,24.802,62.516
					c1.122,6.178,1.552,13.146-2.26,18.135c-1.281,1.676-3.097,3.066-5.192,3.311c-1.638,0.192-3.269-0.324-4.818-0.89
					c-7.802-2.852-15.063-7.176-21.286-12.678"/>
			</g>
			<g>
				<defs>
					<path id="XMLID_8_" d="M147.973,115.211c-7.01-28.409-49.808-20.661-68.624-9.593c0,0,30.623,15.865,34.681,25.827
						c0.242,0.593,0.462,1.291,0.667,2.07l14.896-4.965c0,0-10.531,5.131-14.382,7.251c0.354,1.802,0.67,3.888,0.98,6.18
						c2.631-0.134,6.119,0.04,6.119,0.04l-5.512,4.594c0.376,2.92,0.785,6.029,1.286,9.199l5.682,2.955l1.092,9.466l-4.506-1.202
						c2.401,9.236,6.267,17.525,13.231,21.229C152.401,179.777,154.984,143.62,147.973,115.211z"/>
				</defs>
				
					<linearGradient id="XMLID_00000023963146424952734180000006331819379493669796_" gradientUnits="userSpaceOnUse" x1="177.8902" y1="247.6038" x2="67.8901" y2="11.6035">
					<stop  offset="0" style="stop-color:#A9CE60"/>
					<stop  offset="1" style="stop-color:#568D73"/>
				</linearGradient>
				
					<use xlink:href="#XMLID_8_"  style="overflow:visible;fill:url(#XMLID_00000023963146424952734180000006331819379493669796_);"/>
				<clipPath id="XMLID_00000165230982768440115440000013130745422253801352_">
					<use xlink:href="#XMLID_8_"  style="overflow:visible;"/>
				</clipPath>
				<path style="opacity:0.1;clip-path:url(#XMLID_00000165230982768440115440000013130745422253801352_);fill:#A45184;" d="
					M75.378,111.983c-1.094,7.969,1.566,16.109,5.916,22.876c2.378,3.699,5.372,7.161,9.311,9.114
					c3.94,1.952,8.966,2.135,12.555-0.405c3.227-2.283,4.782-6.294,5.415-10.197c1.733-10.684-2.576-22.144-10.918-29.04
					c-2.738-2.263-5.983-4.092-9.52-4.418c-3.537-0.325-7.375,1.106-9.227,4.137"/>
				<path style="opacity:0.1;clip-path:url(#XMLID_00000165230982768440115440000013130745422253801352_);fill:#A45184;" d="
					M97.523,97.343c0,0,29.758,3.16,35.025,12.904c5.267,9.744,9.744,35.552,4.74,62.413c5.794-8.427,7.11-49.772,0-63.729
					C130.178,94.973,106.74,94.973,97.523,97.343z"/>
			</g>
			<g>
				<defs>
					<path id="XMLID_10_" d="M9.42,125.017c7.669,0.542,15.136,0.516,22.278,0.015l1.411-3.764l0.472,3.62
						c26.023-2.152,47.449-10.7,57.784-21.662C91.365,103.225,56.859,76.636,9.42,125.017z"/>
				</defs>
				
					<linearGradient id="XMLID_00000011736077347677432000000009045485557862703280_" gradientUnits="userSpaceOnUse" x1="60.5593" y1="180.3529" x2="41.4445" y2="55.8341">
					<stop  offset="0" style="stop-color:#A9CE60"/>
					<stop  offset="1" style="stop-color:#568D73"/>
				</linearGradient>
				
					<use xlink:href="#XMLID_10_"  style="overflow:visible;fill:url(#XMLID_00000011736077347677432000000009045485557862703280_);"/>
				<clipPath id="XMLID_00000052100096841065255760000010491666035004141709_">
					<use xlink:href="#XMLID_10_"  style="overflow:visible;"/>
				</clipPath>
				<path style="opacity:0.1;clip-path:url(#XMLID_00000052100096841065255760000010491666035004141709_);fill:#A45184;" d="
					M55.52,101.395c-13.874,5.871-25.941,15.425-36.388,26.279c0.686-4.866,5.236-7.192,8.591-10.783
					c9.735-10.419,20.72-18.697,34.423-22.639c9.956-2.864,32.193-4.298,41.073,2.182c-0.605,0.982-3.451,4.878-6.049,4.88
					c-6.643,0.003-10.526-6.536-19.346-5.568C70.169,96.586,62.606,98.397,55.52,101.395z"/>
				<path style="opacity:0.1;clip-path:url(#XMLID_00000052100096841065255760000010491666035004141709_);fill:#A45184;" d="
					M87.602,91.743c-0.12-0.481-0.844-0.331-1.263-0.066c-8.908,5.644-15.26,15.168-17.048,25.562
					c-0.286,1.664-0.431,3.494,0.459,4.929c0.873,1.408,2.592,2.114,4.248,2.173c1.655,0.059,3.276-0.434,4.848-0.956
					c5.163-1.716,10.455-4.002,13.721-8.353c1.561-2.079,2.567-4.52,3.404-6.982c1.169-3.441,2.038-6.984,2.595-10.575
					c0.527-3.397,0.762-6.945-0.318-10.208"/>
			</g>
			<g>
				<defs>
					<path id="XMLID_9_" d="M95.004,162.719l9.596-1.816c4.074-29.282-9.96-60.089-20.776-61.726c0,0-7.558,14-11.166,32.999
						c2.765-0.645,6.969-0.952,11.058,1.416c-3.329,0-8.509,1.395-11.711,2.365c-0.607,3.915-1.03,8.003-1.171,12.199h7.057
						l-7.104,3.429c0.004,0.97,0.022,1.944,0.059,2.923l6.681,2.386l-6.418,1.805c1.133,12.848,5.397,26.097,15.212,37.867
						c9.904-8.77,15.308-20.021,17.621-31.743L95.004,162.719z"/>
				</defs>
				
					<linearGradient id="XMLID_00000170242492390247575840000011466764417391798155_" gradientUnits="userSpaceOnUse" x1="91.554" y1="195.8369" x2="84.908" y2="110.2437">
					<stop  offset="0" style="stop-color:#A9CE60"/>
					<stop  offset="1" style="stop-color:#568D73"/>
				</linearGradient>
				
					<use xlink:href="#XMLID_9_"  style="overflow:visible;fill:url(#XMLID_00000170242492390247575840000011466764417391798155_);"/>
				<clipPath id="XMLID_00000013192058033104590540000010966459005162746029_">
					<use xlink:href="#XMLID_9_"  style="overflow:visible;"/>
				</clipPath>
				<path style="opacity:0.1;clip-path:url(#XMLID_00000013192058033104590540000010966459005162746029_);fill:#A45184;" d="
					M86.92,104.45c1.197,23.943,1.098,47.95-0.298,71.882c3.576-17.83,4.088-36.119,4.332-54.302
					c0.114-8.48,0.071-17.383-3.99-24.828"/>
			</g>
		</g>
		<g style="clip-path:url(#SVGID_00000138549834518376340580000001148008642265463737_);">
			<defs>
				<path id="XMLID_14_" d="M81.778,451.821c0,0,12.57-119.111,92.177-170.587c22.745,77.812-14.365,162.806-22.146,174.777
					C120.849,457.21,108.661,443.974,81.778,451.821z"/>
			</defs>
			
				<linearGradient id="XMLID_00000132047680084429691610000015634695921512991375_" gradientUnits="userSpaceOnUse" x1="137.458" y1="424.0747" x2="103.3272" y2="201.7375">
				<stop  offset="0" style="stop-color:#FF799C"/>
				<stop  offset="1" style="stop-color:#FFE760"/>
			</linearGradient>
			
				<use xlink:href="#XMLID_14_"  style="overflow:visible;fill:url(#XMLID_00000132047680084429691610000015634695921512991375_);"/>
			<clipPath id="XMLID_00000037669518791954901030000015565043028155516826_">
				<use xlink:href="#XMLID_14_"  style="overflow:visible;"/>
			</clipPath>
			<path style="opacity:0.49;clip-path:url(#XMLID_00000037669518791954901030000015565043028155516826_);fill:#613683;" d="
				M166.772,300.388c0,0-39.504,93.374-53.165,159.72c6.604,3.19,8.184,2.04,8.184,2.04S144.027,389.572,166.772,300.388z"/>
			<path style="opacity:0.49;clip-path:url(#XMLID_00000037669518791954901030000015565043028155516826_);fill:#613683;" d="
				M133.974,293.559c-7.501,1.739-12.438,9.473-13.205,17.134s1.792,15.245,4.697,22.376c2.904,7.131,6.232,14.242,7.125,21.89
				c2.006,17.175-10.414,34.852-27.252,38.787c-4.289,1.002-8.843,1.19-13.064-0.068c-7.993-2.381-13.957-10.142-14.608-18.457
				c-0.651-8.315,3.823-16.723,10.865-21.192c1.639-1.04,4.11-1.744,5.271-0.187c0.553,0.742,0.562,1.748,0.482,2.671
				c-0.646,7.426-5.442,15.037-2.358,21.822c3.278,7.212,14.083,8.04,20.473,3.358c6.39-4.682,9.215-12.77,10.954-20.498
				c1.748-7.77,2.362-17-3.292-22.609c-3.323-3.296-8.239-4.648-11.426-8.076c-5.235-5.631-3.065-16.222,3.963-19.34"/>
			<path style="opacity:0.49;clip-path:url(#XMLID_00000037669518791954901030000015565043028155516826_);fill:#613683;" d="
				M137.217,338.557c2.367,1.278,5.437,1.185,7.674-0.307c2.237-1.493,3.507-4.348,3.031-6.996
				c-0.182-1.011-0.593-1.969-1.099-2.863c-0.452-0.799-1.001-1.574-1.769-2.075c-0.876-0.571-1.972-0.736-3.012-0.628
				C136.893,326.224,131.201,335.308,137.217,338.557z"/>
			<path style="opacity:0.1;clip-path:url(#XMLID_00000037669518791954901030000015565043028155516826_);fill:#A45184;" d="
				M133.228,458.234c2.367,1.278,5.437,1.186,7.674-0.307c2.238-1.493,3.507-4.348,3.031-6.996
				c-0.182-1.011-0.593-1.969-1.099-2.863c-0.452-0.799-1.001-1.574-1.769-2.075c-0.876-0.571-1.972-0.736-3.012-0.628
				C132.904,445.9,127.212,454.984,133.228,458.234z"/>
			<path style="opacity:0.49;clip-path:url(#XMLID_00000037669518791954901030000015565043028155516826_);fill:#613683;" d="
				M157.577,362.181c0.206,1.249,1.199,2.23,2.283,2.884c1.965,1.186,4.4,1.57,6.635,1.045c0.49-0.115,0.984-0.279,1.366-0.607
				c0.568-0.486,0.8-1.248,0.993-1.97c0.486-1.816,0.867-3.845-0.027-5.498c-0.816-1.508-2.595-2.347-4.309-2.307
				C161.685,355.797,157.035,358.894,157.577,362.181z"/>
			<path style="opacity:0.49;clip-path:url(#XMLID_00000037669518791954901030000015565043028155516826_);fill:#613683;" d="
				M112.818,402.905c-0.038,1.291,0.504,2.677,1.638,3.296c0.675,0.369,1.479,0.43,2.246,0.365c1.867-0.158,3.728-1.099,4.679-2.713
				c0.951-1.614,0.779-3.906-0.624-5.147c-0.809-0.715-1.922-1.026-3.002-1.004C114.943,397.76,112.9,400.076,112.818,402.905z"/>
			<path style="opacity:0.49;clip-path:url(#XMLID_00000037669518791954901030000015565043028155516826_);fill:#613683;" d="
				M165.697,214.551c-7.501,1.738-12.438,9.473-13.204,17.134c-0.766,7.662,1.792,15.245,4.696,22.376
				c2.904,7.131,6.232,14.242,7.125,21.89c2.006,17.175-10.415,34.852-27.252,38.787c-4.289,1.002-8.843,1.189-13.064-0.068
				c-7.993-2.381-13.957-10.142-14.608-18.457c-0.651-8.315,3.823-16.723,10.865-21.192c1.639-1.04,4.11-1.744,5.271-0.187
				c0.553,0.742,0.562,1.748,0.482,2.67c-0.646,7.426-5.443,15.037-2.358,21.823c3.278,7.212,14.083,8.04,20.473,3.358
				c6.39-4.682,9.215-12.77,10.954-20.498c1.748-7.77,2.362-17-3.292-22.609c-3.323-3.296-8.24-4.648-11.427-8.076
				c-5.235-5.631-3.065-16.222,3.963-19.34"/>
			<path style="opacity:0.49;clip-path:url(#XMLID_00000037669518791954901030000015565043028155516826_);fill:#613683;" d="
				M195.83,306.919c-13.238,5.829-23.508,18.004-27.024,32.034c-0.749,2.989-1.189,6.23-0.041,9.089
				c1.919,4.78,7.549,6.882,12.67,7.44c3.119,0.34,6.409,0.279,9.211-1.133c2.118-1.068,3.801-2.831,5.278-4.687
				c6.947-8.726,10.145-20.338,8.645-31.391c-2.535,0.667-3.839,3.395-4.873,5.803c-2.09,4.868-4.436,9.701-7.867,13.737
				c-3.431,4.036-8.079,7.245-13.317,8.029c-0.982,0.147-2.039,0.196-2.912-0.277c-1.803-0.976-1.884-3.514-1.534-5.534
				c1.748-10.066,8.543-19.124,17.718-23.618"/>
			<path style="opacity:0.49;clip-path:url(#XMLID_00000037669518791954901030000015565043028155516826_);fill:#613683;" d="
				M183.027,369.128c-4.122,1.49-8.535,2.067-12.629,3.632c-12.732,4.869-20,18.127-25.082,30.776
				c-4.576,11.391-8.193,24.609-2.708,35.59c5.312,10.636,19.033,15.978,30.337,12.294c11.303-3.684,19.157-15.579,18.722-27.46
				c-8.212,2.13-11.556,12.012-18.395,17.033c-5.769,4.235-14.265,4.438-20.088,0.279c-5.823-4.16-8.368-12.458-5.652-19.079
				c1.86-4.534,6.872-8.254,11.535-6.744c3.949,1.279,6.003,5.592,7.071,9.603c0.367,1.377,0.812,2.953,2.105,3.554
				c1.645,0.765,3.462-0.541,4.805-1.76c2.125-1.929,4.307-3.936,5.485-6.552c1.178-2.617,1.087-6.03-0.99-8.01
				c-1.566-1.493-3.866-1.871-6.022-2.042c-6.849-0.544-15.459-0.717-18.203-7.017c-1.732-3.977-0.008-8.631,2.429-12.22
				c6.957-10.248,20.095-15.911,32.323-13.933c2.28,0.369,4.651,0.974,6.85,0.27c4.775-1.529,6.445-9.328,2.773-12.824
				C192.829,359.886,187.933,367.354,183.027,369.128z"/>
			<path style="opacity:0.49;clip-path:url(#XMLID_00000037669518791954901030000015565043028155516826_);fill:#613683;" d="
				M74.838,395.555c-0.656,5.884,0.401,12.179,4.067,16.828c3.666,4.648,10.268,7.188,15.797,5.07
				c2.937-1.125,5.315-3.381,8.203-4.626c2.887-1.245,6.912-1.04,8.402,1.729c0.784,1.457,0.644,3.216,0.483,4.863
				c-0.742,7.588-1.496,15.238-3.754,22.52c-2.258,7.282-6.156,14.263-12.176,18.942c3.466-11.871,6.932-23.741,10.398-35.612
				c0.386-1.321,0.752-2.824,0.047-4.007c-0.818-1.372-2.779-1.645-4.276-1.089c-1.497,0.556-2.669,1.721-3.885,2.756
				c-4.989,4.246-11.945,6.691-18.22,4.811c-6.275-1.88-11.004-8.963-8.941-15.181"/>
		</g>
		<g style="clip-path:url(#SVGID_00000138549834518376340580000001148008642265463737_);">
			<defs>
				<path id="XMLID_15_" d="M531.733,304.51c-5.657-6.422-14.612-9.472-21.818-8.373c-2.414,0.368-10.432-1.996-16.766-0.571
					c-7.881,1.773-8.472,7.29-8.472,7.29s-9.458-5.32-14.384,1.379c-1.47,1.999-2.2,3.789-2.513,5.313
					c-12.789,3.028-25.396,6.762-37.599,11.589c0.509,4.377,45.894,3.645,67.499,3.392c9.969-0.117,16.709,2.975,26.318,0.322
					C532.672,322.458,538.662,312.376,531.733,304.51z"/>
			</defs>
			
				<linearGradient id="XMLID_00000042717871703182960700000012099841945024688544_" gradientUnits="userSpaceOnUse" x1="464.6325" y1="290.1278" x2="519.4445" y2="366.388">
				<stop  offset="0" style="stop-color:#AFED60"/>
				<stop  offset="1" style="stop-color:#56A878"/>
			</linearGradient>
			
				<use xlink:href="#XMLID_15_"  style="overflow:visible;fill:url(#XMLID_00000042717871703182960700000012099841945024688544_);"/>
			<clipPath id="XMLID_00000072991620483671501040000009095104783129818000_">
				<use xlink:href="#XMLID_15_"  style="overflow:visible;"/>
			</clipPath>
			<path style="opacity:0.1;clip-path:url(#XMLID_00000072991620483671501040000009095104783129818000_);fill:#A45184;" d="
				M433.569,328.003c4.902,0.309,9.893-0.994,14.019-3.659c3.124-2.018,5.747-4.778,9.013-6.559
				c3.266-1.781,7.631-2.371,10.507-0.011c0.629,0.516,1.374,1.203,2.132,0.906c0.506-0.198,0.749-0.759,0.975-1.253
				c1.106-2.412,3.093-4.465,5.582-5.383c2.489-0.918,5.465-0.596,7.54,1.057c7.458-8.885,15.76-18.298,27.096-20.762
				c7.899-1.717,16.164,0.272,23.649,3.326c5.046,2.059,9.974,4.663,13.823,8.521c3.849,3.858,6.531,9.119,6.373,14.566
				c-0.144,4.936-2.604,9.612-6.048,13.152c-3.444,3.54-7.814,6.047-12.322,8.063c-12.299,5.5-25.951,7.615-39.419,7.274
				c-13.469-0.341-26.79-3.075-39.701-6.929"/>
		</g>
		<g style="clip-path:url(#SVGID_00000138549834518376340580000001148008642265463737_);">
			<defs>
				<path id="XMLID_16_" d="M56.11,420.779c0.943,0.471,6.665,5.332,6.665,5.332s9.998-0.333,10.998,0.667
					c1,1-5.413,5.688-5.413,5.688s8.079,6.309,7.413,6.976c-0.667,0.667-11.926-1.334-11.926-1.334s-5.07,8.666-7.07,7.999
					c-2-0.667-1.957-10.03-1.957-10.03s-8.473-0.58-9.14-1.58c-0.667-1,8.688-6.206,8.688-6.206S54.777,420.112,56.11,420.779z"/>
			</defs>
			<use xlink:href="#XMLID_16_"  style="overflow:visible;fill:#FFC83D;"/>
			<clipPath id="XMLID_00000061437503237449080150000014318442868413375150_">
				<use xlink:href="#XMLID_16_"  style="overflow:visible;"/>
			</clipPath>
			<path style="opacity:0.1;clip-path:url(#XMLID_00000061437503237449080150000014318442868413375150_);fill:#A45184;" d="
				M45.815,434.202c1.265-1.051,2.848-1.713,4.485-1.876c0.66-0.066,1.42-0.011,1.843,0.5c0.235,0.285,0.336,0.683,0.636,0.897
				c0.878,0.627,2.143-0.95,3.053-0.371c0.575,0.366,0.426,1.231,0.208,1.876c0.438-0.182,0.896,0.338,0.876,0.812
				c-0.02,0.474-0.322,0.88-0.551,1.296c-0.598,1.082-0.738,2.351-0.841,3.583c-0.088,1.053-0.155,2.133,0.132,3.15
				c0.287,1.017,0.997,1.976,2.009,2.279c1.264,0.379,2.649-0.375,3.408-1.455c0.759-1.08,1.029-2.419,1.267-3.717
				c0.237-1.298,0.475-2.637,1.183-3.751c0.426-0.669,1.136-1.278,1.922-1.171c0.781,0.106,1.289,0.852,1.696,1.527
				c0.176-0.603,0.738-1.074,1.363-1.142c0.625-0.067,1.274,0.273,1.574,0.825c1.131-0.562,2.389-0.801,3.63-1.035
				c0.598-0.112,1.204-0.225,1.81-0.174c1.516,0.128,2.79,1.284,3.489,2.636c0.639,1.236,0.876,2.76,0.28,4.017
				c-0.381,0.803-1.058,1.422-1.723,2.012c-1.894,1.681-3.871,3.341-6.21,4.309c-2.066,0.856-4.319,1.132-6.539,1.4
				c-2.305,0.278-4.635,0.557-6.944,0.306c-2.818-0.306-5.485-1.386-8.11-2.456c-1.074-0.438-2.175-0.893-3.013-1.695
				c-0.595-0.57-1.024-1.285-1.447-1.992c-1.273-2.128-2.587-4.313-3.243-6.725c-0.328-1.205-0.474-1.69,0.622-2.127
				C43.958,435.432,44.685,435.141,45.815,434.202z"/>
			<path style="opacity:0.1;clip-path:url(#XMLID_00000061437503237449080150000014318442868413375150_);fill:#A45184;" d="
				M62.758,432.333c1.9-0.745,1.058-2.197-0.532-2.549c-0.992-0.22-2.688-0.449-3.614,0.113c-0.849,0.516-1.133,1.707-0.364,2.452
				C59.255,433.324,61.648,432.768,62.758,432.333z"/>
		</g>
		<g style="clip-path:url(#SVGID_00000138549834518376340580000001148008642265463737_);">
			<defs>
				<path id="XMLID_17_" d="M424.785,415.524c-0.763,0.288-5.397,3.263-5.397,3.263s-8.095-0.204-8.905,0.408
					c-0.81,0.612,4.383,3.481,4.383,3.481s-6.542,3.861-6.002,4.268c0.54,0.408,9.657-0.816,9.657-0.816s4.106,5.303,5.725,4.895
					c1.619-0.408,1.585-6.138,1.585-6.138s6.861-0.355,7.401-0.967c0.54-0.612-7.035-3.798-7.035-3.798
					S425.865,415.116,424.785,415.524z"/>
			</defs>
			<use xlink:href="#XMLID_17_"  style="overflow:visible;fill:#FF7E3D;"/>
			<clipPath id="XMLID_00000179621203987671815260000007359807643219291278_">
				<use xlink:href="#XMLID_17_"  style="overflow:visible;"/>
			</clipPath>
			<path style="opacity:0.1;clip-path:url(#XMLID_00000179621203987671815260000007359807643219291278_);fill:#A45184;" d="
				M433.122,423.738c-1.024-0.643-2.306-1.048-3.631-1.148c-0.535-0.04-1.15-0.007-1.492,0.306c-0.19,0.174-0.272,0.418-0.515,0.549
				c-0.711,0.384-1.735-0.581-2.472-0.227c-0.466,0.224-0.345,0.753-0.169,1.148c-0.355-0.111-0.725,0.207-0.71,0.497
				c0.016,0.29,0.26,0.539,0.446,0.793c0.484,0.662,0.598,1.439,0.681,2.193c0.071,0.645,0.126,1.305-0.107,1.928
				c-0.232,0.622-0.807,1.209-1.627,1.395c-1.024,0.232-2.145-0.23-2.759-0.89c-0.615-0.661-0.833-1.48-1.026-2.274
				c-0.192-0.794-0.384-1.614-0.958-2.295c-0.345-0.41-0.92-0.782-1.557-0.717c-0.633,0.065-1.044,0.521-1.373,0.934
				c-0.142-0.369-0.597-0.657-1.103-0.699c-0.506-0.041-1.032,0.167-1.275,0.505c-0.915-0.344-1.935-0.49-2.939-0.633
				c-0.484-0.069-0.975-0.138-1.465-0.107c-1.228,0.078-2.259,0.786-2.825,1.613c-0.517,0.756-0.71,1.689-0.227,2.458
				c0.309,0.492,0.857,0.87,1.395,1.231c1.534,1.028,3.135,2.044,5.029,2.637c1.673,0.524,3.497,0.693,5.295,0.857
				c1.867,0.17,3.753,0.341,5.623,0.187c2.281-0.187,4.441-0.848,6.567-1.503c0.87-0.268,1.761-0.546,2.439-1.037
				c0.481-0.349,0.83-0.786,1.172-1.219c1.03-1.302,2.094-2.639,2.626-4.115c0.266-0.737,0.384-1.034-0.503-1.302
				C434.625,424.49,434.037,424.312,433.122,423.738z"/>
			<path style="opacity:0.1;clip-path:url(#XMLID_00000179621203987671815260000007359807643219291278_);fill:#A45184;" d="
				M419.402,422.594c-1.539-0.456-0.857-1.345,0.43-1.56c0.803-0.134,2.177-0.275,2.926,0.07c0.687,0.316,0.917,1.045,0.295,1.5
				C422.239,423.2,420.302,422.861,419.402,422.594z"/>
		</g>
		
			<linearGradient id="SVGID_00000152985848356646976280000002445547322258371225_" gradientUnits="userSpaceOnUse" x1="497.4018" y1="592.4345" x2="389.4019" y2="405.1015">
			<stop  offset="0" style="stop-color:#567C78"/>
			<stop  offset="1" style="stop-color:#56A362"/>
		</linearGradient>
		
			<path style="clip-path:url(#SVGID_00000138549834518376340580000001148008642265463737_);fill:url(#SVGID_00000152985848356646976280000002445547322258371225_);" d="
			M468.092,523.667c0,0-55.333-37.333-66-80C434.092,467,460.758,498.333,468.092,523.667z"/>
		
			<linearGradient id="SVGID_00000054239306559089585070000013750499286147828132_" gradientUnits="userSpaceOnUse" x1="86.9614" y1="594.4627" x2="-40.0196" y2="374.2056" gradientTransform="matrix(0.5245 0.8514 -0.8514 0.5245 391.4826 203.9115)">
			<stop  offset="0" style="stop-color:#567C78"/>
			<stop  offset="1" style="stop-color:#56A362"/>
		</linearGradient>
		
			<path style="clip-path:url(#SVGID_00000138549834518376340580000001148008642265463737_);fill:url(#SVGID_00000054239306559089585070000013750499286147828132_);" d="
			M-15.656,519.41c0,0-6.252-105.743,51.082-109.076C-7.908,436.333-16.575,500.333-15.656,519.41z"/>
		
			<linearGradient id="SVGID_00000126304336288653572280000013304891595674073247_" gradientUnits="userSpaceOnUse" x1="525.5076" y1="558.0903" x2="436.1743" y2="359.4243">
			<stop  offset="0" style="stop-color:#567C78"/>
			<stop  offset="1" style="stop-color:#56A362"/>
		</linearGradient>
		
			<path style="clip-path:url(#SVGID_00000138549834518376340580000001148008642265463737_);fill:url(#SVGID_00000126304336288653572280000013304891595674073247_);" d="
			M492.092,518.333c-0.667-2,22-58-32.667-127.333C481.425,437,492.092,518.333,492.092,518.333z"/>
		<g style="clip-path:url(#SVGID_00000138549834518376340580000001148008642265463737_);">
			<defs>
				<path id="XMLID_18_" d="M460.092,418.333c-3.244,6.092-5.786,12.288-7.759,18.482l3.092,6.185l-5.14,1.028
					c-0.415,1.659-0.792,3.315-1.133,4.966l5.605,6.006l-6.641-0.369c-6.297,39.378,6.641,74.479,6.641,77.036l2.667,1.333
					C490.758,511,479.425,444.333,460.092,418.333z"/>
			</defs>
			
				<linearGradient id="XMLID_00000160152520705298836210000007843457607878117050_" gradientUnits="userSpaceOnUse" x1="444.1331" y1="456.7729" x2="501.0474" y2="534.8101">
				<stop  offset="0" style="stop-color:#567C78"/>
				<stop  offset="1" style="stop-color:#56A362"/>
			</linearGradient>
			
				<use xlink:href="#XMLID_18_"  style="overflow:visible;fill:url(#XMLID_00000160152520705298836210000007843457607878117050_);"/>
			<clipPath id="XMLID_00000045613195638182853060000015485171418355881625_">
				<use xlink:href="#XMLID_18_"  style="overflow:visible;"/>
			</clipPath>
			<path style="opacity:0.1;clip-path:url(#XMLID_00000045613195638182853060000015485171418355881625_);fill:#A45184;" d="
				M450.412,554.536c7.171-40.084,11.031-80.76,11.528-121.478c7.912,42.407,10.085,86.458,0.422,128.5"/>
		</g>
		<g style="clip-path:url(#SVGID_00000138549834518376340580000001148008642265463737_);">
			<defs>
				<path id="XMLID_19_" d="M25.457,445.32c0.565,6.879,0.443,13.574-0.199,20.043l-5.29,4.453l4.311,2.98
					c-0.277,1.688-0.587,3.357-0.928,5.008l-7.527,3.293l6.243,2.293c-9.822,38.65-35.609,65.751-36.622,68.099l-2.977,0.167
					C-39.418,518.25-2.596,461.531,25.457,445.32z"/>
			</defs>
			
				<linearGradient id="XMLID_00000007389469571536054530000016895692902082922656_" gradientUnits="userSpaceOnUse" x1="-7.4364" y1="480.5376" x2="49.4822" y2="558.5807" gradientTransform="matrix(-0.9181 -0.3962 -0.3962 0.9181 208.44 42.8079)">
				<stop  offset="0" style="stop-color:#567C78"/>
				<stop  offset="1" style="stop-color:#56A362"/>
			</linearGradient>
			
				<use xlink:href="#XMLID_19_"  style="overflow:visible;fill:url(#XMLID_00000007389469571536054530000016895692902082922656_);"/>
			<clipPath id="XMLID_00000016065352510760806350000013432401295445415813_">
				<use xlink:href="#XMLID_19_"  style="overflow:visible;"/>
			</clipPath>
			<path style="opacity:0.1;clip-path:url(#XMLID_00000016065352510760806350000013432401295445415813_);fill:#A45184;" d="
				M-19.625,574.209c9.299-39.645,21.873-78.521,37.551-116.102c-24.068,35.8-43.518,75.385-51.305,117.815"/>
		</g>
		<path style="clip-path:url(#SVGID_00000138549834518376340580000001148008642265463737_);fill:#FFFFFF;" d="M324.382,221.384
			c0,0,13.23-1.318,12.808,7.979c4.417-8.441,10.433-3.33,10.433-3.33s-3.17-6.191-8.874-2.113
			C335.128,216.505,324.382,221.384,324.382,221.384z"/>
		<path style="clip-path:url(#SVGID_00000138549834518376340580000001148008642265463737_);fill:#FFFFFF;" d="M336.134,243.347
			c0,0,4.35-9.05,9.019,3.928c1.288-14.061,7.71-7.128,7.71-7.128s-5.964-10.619-8.583,0.873
			C339.916,230.691,336.134,243.347,336.134,243.347z"/>
	</g>
</g>
<g id="DESIGNED_BY_FREEPIK">
	<g>
		<g>
			<path style="fill:#FFFFFF;" d="M180.308,472.293v-0.161c-0.218,0.249-0.432,0.452-0.644,0.608
				c-0.212,0.157-0.441,0.276-0.689,0.357c-0.247,0.082-0.517,0.122-0.81,0.122c-0.388,0-0.747-0.082-1.078-0.246
				c-0.33-0.164-0.616-0.399-0.857-0.704c-0.242-0.305-0.425-0.662-0.549-1.074c-0.125-0.412-0.187-0.857-0.187-1.335
				c0-1.013,0.248-1.804,0.742-2.369c0.495-0.565,1.146-0.848,1.953-0.848c0.467,0,0.861,0.081,1.181,0.24
				c0.321,0.16,0.633,0.408,0.938,0.739v-2.392c0-0.333,0.066-0.583,0.199-0.754c0.132-0.17,0.321-0.255,0.567-0.255
				c0.245,0,0.434,0.078,0.567,0.234c0.133,0.157,0.199,0.386,0.199,0.691v7.147c0,0.309-0.071,0.54-0.214,0.694
				c-0.143,0.154-0.326,0.231-0.552,0.231c-0.221,0-0.405-0.08-0.549-0.24C180.38,472.817,180.308,472.589,180.308,472.293z
				 M177.12,469.912c0,0.439,0.068,0.813,0.205,1.122c0.137,0.309,0.324,0.541,0.561,0.697c0.238,0.157,0.497,0.236,0.778,0.236
				c0.285,0,0.545-0.074,0.781-0.223c0.235-0.148,0.423-0.376,0.564-0.682c0.141-0.307,0.21-0.691,0.21-1.149
				c0-0.432-0.07-0.803-0.21-1.114c-0.14-0.31-0.33-0.547-0.57-0.712c-0.24-0.164-0.502-0.245-0.786-0.245
				c-0.297,0-0.562,0.084-0.796,0.252c-0.233,0.168-0.414,0.409-0.543,0.724C177.184,469.131,177.12,469.496,177.12,469.912z"/>
			<path style="fill:#FFFFFF;" d="M187.454,470.322h-3.169c0.004,0.367,0.078,0.692,0.223,0.973
				c0.144,0.281,0.336,0.493,0.576,0.635c0.24,0.143,0.504,0.213,0.793,0.213c0.194,0,0.371-0.022,0.531-0.067
				c0.161-0.046,0.316-0.117,0.466-0.214c0.15-0.097,0.289-0.201,0.415-0.312c0.126-0.111,0.29-0.262,0.493-0.452
				c0.083-0.071,0.202-0.107,0.357-0.107c0.166,0,0.3,0.046,0.403,0.137c0.103,0.092,0.155,0.219,0.155,0.386
				c0,0.146-0.058,0.317-0.172,0.513c-0.116,0.196-0.289,0.384-0.52,0.564c-0.232,0.18-0.522,0.329-0.873,0.448
				c-0.35,0.119-0.753,0.178-1.208,0.178c-1.04,0-1.85-0.297-2.428-0.891c-0.578-0.593-0.866-1.399-0.866-2.416
				c0-0.479,0.071-0.924,0.213-1.332c0.143-0.41,0.351-0.761,0.623-1.054c0.273-0.293,0.609-0.517,1.009-0.674
				c0.4-0.156,0.843-0.234,1.33-0.234c0.633,0,1.176,0.132,1.629,0.4c0.454,0.267,0.794,0.612,1.019,1.035
				c0.225,0.424,0.339,0.856,0.339,1.294c0,0.408-0.117,0.672-0.35,0.793C188.206,470.261,187.878,470.322,187.454,470.322z
				 M184.284,469.402h2.938c-0.039-0.554-0.189-0.969-0.448-1.244c-0.259-0.275-0.6-0.413-1.024-0.413
				c-0.404,0-0.735,0.139-0.994,0.418C184.497,468.442,184.34,468.855,184.284,469.402z"/>
			<path style="fill:#FFFFFF;" d="M194.838,471.099c0,0.447-0.108,0.831-0.327,1.149c-0.217,0.319-0.539,0.56-0.965,0.725
				c-0.425,0.164-0.943,0.246-1.552,0.246c-0.582,0-1.08-0.089-1.496-0.267c-0.415-0.178-0.722-0.401-0.92-0.667
				c-0.198-0.268-0.297-0.535-0.297-0.805c0-0.178,0.063-0.33,0.19-0.456c0.126-0.126,0.287-0.19,0.481-0.19
				c0.17,0,0.3,0.042,0.391,0.125c0.091,0.083,0.178,0.2,0.261,0.35c0.166,0.29,0.366,0.504,0.597,0.648
				c0.231,0.142,0.547,0.214,0.947,0.214c0.324,0,0.59-0.073,0.798-0.217c0.208-0.145,0.311-0.31,0.311-0.496
				c0-0.285-0.107-0.492-0.324-0.622c-0.216-0.131-0.571-0.256-1.066-0.375c-0.558-0.138-1.012-0.284-1.362-0.436
				c-0.35-0.151-0.63-0.353-0.84-0.602c-0.21-0.25-0.315-0.557-0.315-0.92c0-0.324,0.097-0.631,0.291-0.92
				c0.194-0.288,0.48-0.519,0.858-0.691c0.377-0.173,0.833-0.259,1.368-0.259c0.419,0,0.797,0.043,1.131,0.131
				c0.335,0.086,0.614,0.204,0.837,0.35c0.224,0.146,0.394,0.308,0.51,0.486c0.117,0.178,0.175,0.352,0.175,0.523
				c0,0.185-0.062,0.338-0.187,0.457c-0.124,0.118-0.301,0.178-0.532,0.178c-0.166,0-0.308-0.048-0.424-0.143
				c-0.117-0.095-0.25-0.237-0.401-0.427c-0.123-0.158-0.266-0.285-0.433-0.38c-0.166-0.095-0.392-0.142-0.677-0.142
				c-0.293,0-0.536,0.062-0.73,0.187c-0.194,0.124-0.291,0.279-0.291,0.465c0,0.171,0.071,0.31,0.213,0.419
				c0.143,0.109,0.334,0.2,0.576,0.27c0.242,0.071,0.573,0.157,0.997,0.261c0.502,0.123,0.913,0.27,1.232,0.44
				c0.318,0.17,0.56,0.371,0.725,0.603C194.756,470.538,194.838,470.802,194.838,471.099z"/>
			<path style="fill:#FFFFFF;" d="M196.494,465.876c-0.226,0-0.418-0.07-0.579-0.208c-0.16-0.138-0.24-0.334-0.24-0.588
				c0-0.23,0.082-0.418,0.246-0.567c0.164-0.149,0.355-0.223,0.573-0.223c0.21,0,0.396,0.067,0.558,0.202
				c0.162,0.135,0.244,0.33,0.244,0.588c0,0.25-0.08,0.444-0.238,0.585C196.899,465.805,196.711,465.876,196.494,465.876z
				 M197.295,467.549v4.683c0,0.325-0.077,0.571-0.232,0.737c-0.155,0.166-0.35,0.249-0.588,0.249c-0.238,0-0.431-0.085-0.579-0.255
				c-0.149-0.17-0.222-0.414-0.222-0.73v-4.636c0-0.32,0.074-0.561,0.222-0.724c0.148-0.162,0.341-0.243,0.579-0.243
				c0.238,0,0.433,0.081,0.588,0.243C197.218,467.035,197.295,467.261,197.295,467.549z"/>
			<path style="fill:#FFFFFF;" d="M204.395,467.817v4.707c0,0.538-0.058,1.001-0.173,1.39c-0.114,0.387-0.298,0.708-0.552,0.961
				c-0.253,0.253-0.585,0.441-0.994,0.563c-0.41,0.123-0.919,0.184-1.529,0.184c-0.558,0-1.057-0.078-1.496-0.234
				c-0.439-0.157-0.777-0.358-1.015-0.605c-0.237-0.247-0.356-0.502-0.356-0.763c0-0.198,0.067-0.36,0.202-0.483
				c0.134-0.125,0.297-0.187,0.487-0.187c0.237,0,0.445,0.105,0.623,0.314c0.087,0.107,0.177,0.216,0.27,0.324
				c0.093,0.109,0.197,0.202,0.309,0.28c0.113,0.076,0.248,0.134,0.406,0.172c0.158,0.037,0.341,0.056,0.546,0.056
				c0.42,0,0.745-0.058,0.977-0.175c0.232-0.117,0.394-0.28,0.487-0.49c0.093-0.209,0.147-0.433,0.163-0.673
				s0.027-0.624,0.035-1.155c-0.25,0.349-0.537,0.615-0.864,0.797c-0.326,0.182-0.715,0.273-1.166,0.273
				c-0.542,0-1.016-0.139-1.422-0.416c-0.405-0.277-0.717-0.665-0.934-1.163c-0.218-0.499-0.326-1.074-0.326-1.727
				c0-0.486,0.066-0.927,0.198-1.318c0.133-0.393,0.322-0.723,0.567-0.992c0.245-0.269,0.528-0.472,0.849-0.608
				c0.32-0.136,0.673-0.204,1.057-0.204c0.459,0,0.857,0.089,1.193,0.264c0.336,0.177,0.649,0.453,0.938,0.829v-0.22
				c0-0.281,0.069-0.498,0.208-0.653c0.139-0.154,0.317-0.231,0.535-0.231c0.313,0,0.52,0.103,0.623,0.306
				C204.343,467.139,204.395,467.433,204.395,467.817z M199.699,469.871c0,0.657,0.143,1.154,0.43,1.49
				c0.287,0.337,0.658,0.505,1.113,0.505c0.269,0,0.523-0.073,0.762-0.217c0.24-0.145,0.435-0.362,0.585-0.653
				c0.15-0.291,0.226-0.644,0.226-1.06c0-0.66-0.145-1.176-0.436-1.543c-0.291-0.368-0.674-0.552-1.149-0.552
				c-0.463,0-0.834,0.176-1.113,0.529C199.838,468.721,199.699,469.222,199.699,469.871z"/>
			<path style="fill:#FFFFFF;" d="M206.97,467.526v0.196c0.285-0.376,0.596-0.652,0.935-0.828c0.338-0.176,0.727-0.264,1.166-0.264
				c0.427,0,0.809,0.093,1.146,0.28c0.336,0.186,0.588,0.449,0.754,0.789c0.107,0.198,0.176,0.413,0.208,0.641
				c0.032,0.23,0.048,0.522,0.048,0.879v3.015c0,0.325-0.074,0.571-0.223,0.737c-0.148,0.166-0.341,0.249-0.579,0.249
				c-0.242,0-0.437-0.085-0.588-0.255c-0.151-0.17-0.225-0.414-0.225-0.73v-2.701c0-0.534-0.075-0.943-0.223-1.226
				c-0.149-0.283-0.444-0.425-0.888-0.425c-0.288,0-0.552,0.086-0.789,0.258c-0.237,0.173-0.412,0.41-0.522,0.71
				c-0.079,0.242-0.119,0.692-0.119,1.353v2.03c0,0.328-0.077,0.576-0.228,0.74c-0.152,0.164-0.349,0.246-0.59,0.246
				c-0.234,0-0.426-0.085-0.576-0.255c-0.15-0.17-0.226-0.414-0.226-0.73v-4.683c0-0.309,0.067-0.54,0.202-0.692
				c0.135-0.152,0.319-0.228,0.552-0.228c0.143,0,0.272,0.034,0.387,0.101c0.114,0.068,0.207,0.169,0.276,0.302
				C206.935,467.167,206.97,467.332,206.97,467.526z"/>
			<path style="fill:#FFFFFF;" d="M216.829,470.322h-3.17c0.004,0.367,0.078,0.692,0.223,0.973c0.144,0.281,0.336,0.493,0.576,0.635
				c0.239,0.143,0.503,0.213,0.792,0.213c0.194,0,0.371-0.022,0.532-0.067c0.16-0.046,0.315-0.117,0.466-0.214
				c0.15-0.097,0.288-0.201,0.416-0.312c0.126-0.111,0.29-0.262,0.492-0.452c0.083-0.071,0.202-0.107,0.356-0.107
				c0.166,0,0.301,0.046,0.404,0.137c0.103,0.092,0.154,0.219,0.154,0.386c0,0.146-0.057,0.317-0.172,0.513
				c-0.115,0.196-0.288,0.384-0.52,0.564c-0.232,0.18-0.522,0.329-0.872,0.448c-0.35,0.119-0.753,0.178-1.208,0.178
				c-1.041,0-1.85-0.297-2.428-0.891c-0.577-0.593-0.866-1.399-0.866-2.416c0-0.479,0.071-0.924,0.214-1.332
				c0.143-0.41,0.351-0.761,0.624-1.054c0.273-0.293,0.609-0.517,1.009-0.674c0.399-0.156,0.843-0.234,1.33-0.234
				c0.633,0,1.176,0.132,1.629,0.4c0.453,0.267,0.793,0.612,1.019,1.035c0.225,0.424,0.338,0.856,0.338,1.294
				c0,0.408-0.117,0.672-0.35,0.793C217.581,470.261,217.253,470.322,216.829,470.322z M213.659,469.402h2.938
				c-0.039-0.554-0.189-0.969-0.448-1.244c-0.259-0.275-0.6-0.413-1.024-0.413c-0.404,0-0.736,0.139-0.995,0.418
				C213.872,468.442,213.715,468.855,213.659,469.402z"/>
			<path style="fill:#FFFFFF;" d="M223.435,472.293v-0.161c-0.218,0.249-0.432,0.452-0.644,0.608
				c-0.212,0.157-0.441,0.276-0.688,0.357c-0.247,0.082-0.517,0.122-0.81,0.122c-0.389,0-0.747-0.082-1.078-0.246
				c-0.33-0.164-0.616-0.399-0.858-0.704c-0.242-0.305-0.424-0.662-0.549-1.074c-0.125-0.412-0.187-0.857-0.187-1.335
				c0-1.013,0.247-1.804,0.742-2.369c0.495-0.565,1.146-0.848,1.953-0.848c0.467,0,0.861,0.081,1.181,0.24
				c0.32,0.16,0.633,0.408,0.938,0.739v-2.392c0-0.333,0.066-0.583,0.199-0.754c0.132-0.17,0.322-0.255,0.567-0.255
				c0.245,0,0.434,0.078,0.567,0.234c0.133,0.157,0.199,0.386,0.199,0.691v7.147c0,0.309-0.071,0.54-0.214,0.694
				c-0.143,0.154-0.326,0.231-0.552,0.231c-0.222,0-0.405-0.08-0.549-0.24C223.508,472.817,223.435,472.589,223.435,472.293z
				 M220.248,469.912c0,0.439,0.068,0.813,0.204,1.122c0.137,0.309,0.324,0.541,0.561,0.697c0.237,0.157,0.496,0.236,0.777,0.236
				c0.285,0,0.546-0.074,0.781-0.223c0.236-0.148,0.424-0.376,0.564-0.682c0.141-0.307,0.211-0.691,0.211-1.149
				c0-0.432-0.07-0.803-0.211-1.114c-0.14-0.31-0.33-0.547-0.57-0.712c-0.24-0.164-0.502-0.245-0.787-0.245
				c-0.296,0-0.562,0.084-0.795,0.252c-0.233,0.168-0.414,0.409-0.543,0.724C220.312,469.131,220.248,469.496,220.248,469.912z"/>
			<path style="fill:#FFFFFF;" d="M230.059,465.145v2.475c0.304-0.316,0.615-0.559,0.932-0.727c0.316-0.168,0.709-0.252,1.176-0.252
				c0.538,0,1.01,0.128,1.416,0.382c0.405,0.256,0.72,0.626,0.944,1.111c0.223,0.484,0.336,1.06,0.336,1.725
				c0,0.491-0.063,0.94-0.187,1.35c-0.125,0.409-0.306,0.765-0.543,1.065c-0.238,0.301-0.525,0.534-0.864,0.698
				c-0.339,0.164-0.712,0.246-1.119,0.246c-0.25,0-0.484-0.029-0.703-0.089c-0.22-0.059-0.407-0.137-0.561-0.234
				c-0.154-0.096-0.286-0.197-0.395-0.3c-0.109-0.103-0.253-0.258-0.431-0.463v0.161c0,0.304-0.073,0.535-0.22,0.692
				c-0.146,0.156-0.332,0.234-0.558,0.234c-0.23,0-0.413-0.077-0.549-0.234c-0.137-0.157-0.205-0.388-0.205-0.692v-7.077
				c0-0.328,0.066-0.577,0.198-0.745c0.133-0.168,0.318-0.252,0.555-0.252c0.25,0,0.441,0.08,0.576,0.24
				C229.992,464.62,230.059,464.848,230.059,465.145z M230.136,469.96c0,0.645,0.148,1.14,0.442,1.486
				c0.295,0.347,0.682,0.521,1.161,0.521c0.407,0,0.759-0.177,1.053-0.532c0.295-0.355,0.442-0.862,0.442-1.523
				c0-0.427-0.061-0.796-0.184-1.104c-0.123-0.309-0.297-0.548-0.522-0.715c-0.226-0.168-0.489-0.252-0.79-0.252
				c-0.309,0-0.584,0.084-0.825,0.252c-0.242,0.168-0.431,0.411-0.57,0.73C230.206,469.141,230.136,469.52,230.136,469.96z"/>
			<path style="fill:#FFFFFF;" d="M236.963,473.42l0.148-0.363l-1.995-5.022c-0.122-0.288-0.184-0.499-0.184-0.629
				c0-0.139,0.036-0.267,0.107-0.385c0.071-0.119,0.169-0.214,0.294-0.285c0.125-0.072,0.255-0.107,0.389-0.107
				c0.233,0,0.409,0.074,0.529,0.223c0.119,0.148,0.223,0.361,0.314,0.638l1.372,3.989l1.3-3.71c0.103-0.3,0.196-0.536,0.279-0.706
				c0.083-0.17,0.171-0.285,0.264-0.344c0.093-0.06,0.225-0.09,0.395-0.09c0.123,0,0.241,0.032,0.353,0.098
				c0.113,0.065,0.2,0.153,0.261,0.264c0.061,0.111,0.092,0.227,0.092,0.35c-0.016,0.075-0.042,0.182-0.077,0.321
				c-0.036,0.138-0.079,0.28-0.13,0.421l-2.113,5.533c-0.182,0.487-0.36,0.868-0.535,1.145c-0.174,0.277-0.404,0.491-0.691,0.638
				c-0.287,0.149-0.674,0.223-1.161,0.223c-0.475,0-0.831-0.051-1.068-0.154c-0.238-0.104-0.356-0.292-0.356-0.564
				c0-0.186,0.056-0.33,0.169-0.43c0.112-0.101,0.28-0.152,0.501-0.152c0.087,0,0.173,0.012,0.256,0.037
				c0.103,0.023,0.192,0.035,0.267,0.035c0.186,0,0.333-0.027,0.44-0.084c0.107-0.055,0.202-0.151,0.288-0.288
				C236.754,473.887,236.852,473.685,236.963,473.42z"/>
		</g>
		<g>
			<path style="fill:#FFFFFF;" d="M260.439,466.769h0.386v-0.487c0-0.509,0.062-0.911,0.192-1.211
				c0.128-0.299,0.347-0.516,0.654-0.653c0.306-0.136,0.727-0.204,1.26-0.204c0.95,0,1.42,0.229,1.42,0.697
				c0,0.149-0.049,0.278-0.15,0.384c-0.096,0.106-0.214,0.16-0.349,0.16c-0.062,0-0.174-0.012-0.329-0.037
				c-0.148-0.021-0.283-0.035-0.389-0.035c-0.292,0-0.479,0.088-0.566,0.259c-0.079,0.172-0.122,0.418-0.122,0.74v0.386h0.395
				c0.62,0,0.926,0.185,0.926,0.56c0,0.262-0.079,0.431-0.245,0.503c-0.163,0.071-0.39,0.107-0.681,0.107h-0.395v4.294
				c0,0.319-0.075,0.563-0.231,0.73c-0.151,0.17-0.346,0.254-0.589,0.254c-0.229,0-0.419-0.084-0.574-0.254
				c-0.153-0.167-0.228-0.411-0.228-0.73v-4.294h-0.446c-0.243,0-0.426-0.053-0.558-0.164c-0.131-0.107-0.197-0.25-0.197-0.423
				C259.625,466.962,259.896,466.769,260.439,466.769"/>
			<path style="fill:#FFFFFF;" d="M265.745,470.878v1.355c0,0.327-0.083,0.574-0.234,0.737c-0.154,0.166-0.349,0.247-0.586,0.247
				c-0.239,0-0.43-0.082-0.579-0.25c-0.148-0.165-0.225-0.41-0.225-0.734v-4.514c0-0.729,0.262-1.093,0.788-1.093
				c0.271,0,0.464,0.084,0.583,0.255c0.119,0.171,0.184,0.421,0.198,0.755c0.192-0.334,0.39-0.584,0.593-0.755
				c0.208-0.171,0.477-0.255,0.819-0.255c0.343,0,0.67,0.084,0.991,0.255c0.322,0.171,0.482,0.398,0.482,0.678
				c0,0.197-0.069,0.362-0.204,0.488c-0.138,0.131-0.284,0.195-0.441,0.195c-0.062,0-0.207-0.039-0.433-0.112
				c-0.228-0.071-0.43-0.108-0.602-0.108c-0.237,0-0.433,0.064-0.582,0.186c-0.151,0.128-0.269,0.311-0.353,0.554
				c-0.081,0.247-0.137,0.541-0.17,0.878C265.759,469.979,265.745,470.392,265.745,470.878"/>
			<path style="fill:#FFFFFF;" d="M273.196,470.32h-3.171c0.005,0.367,0.078,0.694,0.222,0.974c0.147,0.279,0.337,0.491,0.578,0.635
				c0.24,0.142,0.502,0.212,0.793,0.212c0.194,0,0.371-0.021,0.531-0.07c0.159-0.043,0.316-0.116,0.466-0.213
				c0.151-0.095,0.288-0.199,0.415-0.313c0.126-0.109,0.292-0.26,0.494-0.449c0.084-0.071,0.203-0.109,0.355-0.109
				c0.168,0,0.301,0.046,0.406,0.139c0.104,0.092,0.152,0.219,0.152,0.386c0,0.147-0.056,0.317-0.167,0.512
				c-0.117,0.198-0.289,0.385-0.522,0.566c-0.234,0.178-0.524,0.329-0.873,0.446c-0.35,0.119-0.754,0.179-1.207,0.179
				c-1.044,0-1.853-0.296-2.429-0.889c-0.578-0.595-0.87-1.401-0.87-2.418c0-0.479,0.073-0.924,0.217-1.334
				c0.14-0.411,0.348-0.76,0.624-1.055c0.272-0.294,0.606-0.518,1.008-0.674c0.399-0.156,0.842-0.234,1.33-0.234
				c0.632,0,1.176,0.134,1.629,0.404c0.452,0.264,0.796,0.61,1.018,1.034c0.226,0.426,0.339,0.855,0.339,1.296
				c0,0.405-0.118,0.669-0.351,0.791C273.947,470.26,273.619,470.32,273.196,470.32 M270.024,469.399h2.938
				c-0.039-0.553-0.186-0.969-0.446-1.242c-0.261-0.276-0.599-0.413-1.025-0.413c-0.403,0-0.736,0.137-0.995,0.418
				C270.237,468.442,270.079,468.853,270.024,469.399"/>
			<path style="fill:#FFFFFF;" d="M279.938,470.32h-3.171c0.004,0.367,0.078,0.694,0.221,0.974c0.145,0.279,0.337,0.491,0.576,0.635
				c0.239,0.142,0.504,0.212,0.795,0.212c0.192,0,0.37-0.021,0.528-0.07c0.162-0.043,0.316-0.116,0.469-0.213
				c0.151-0.095,0.287-0.199,0.415-0.313c0.125-0.109,0.29-0.26,0.493-0.449c0.084-0.071,0.204-0.109,0.355-0.109
				c0.168,0,0.302,0.046,0.406,0.139c0.103,0.092,0.15,0.219,0.15,0.386c0,0.147-0.054,0.317-0.171,0.512
				c-0.111,0.198-0.284,0.385-0.519,0.566c-0.231,0.178-0.525,0.329-0.872,0.446c-0.349,0.119-0.755,0.179-1.209,0.179
				c-1.042,0-1.849-0.296-2.429-0.889c-0.577-0.595-0.868-1.401-0.868-2.418c0-0.479,0.073-0.924,0.217-1.334
				c0.142-0.411,0.349-0.76,0.623-1.055c0.272-0.294,0.608-0.518,1.009-0.674c0.398-0.156,0.844-0.234,1.331-0.234
				c0.63,0,1.174,0.134,1.633,0.404c0.45,0.264,0.791,0.61,1.013,1.034c0.225,0.426,0.341,0.855,0.341,1.296
				c0,0.405-0.12,0.669-0.351,0.791C280.688,470.26,280.36,470.32,279.938,470.32 M276.767,469.399h2.938
				c-0.04-0.553-0.19-0.969-0.447-1.242c-0.263-0.276-0.601-0.413-1.027-0.413c-0.403,0-0.735,0.137-0.995,0.418
				C276.978,468.442,276.819,468.853,276.767,469.399"/>
			<path style="fill:#FFFFFF;" d="M283.487,467.538v0.194c0.304-0.375,0.621-0.651,0.953-0.828c0.324-0.178,0.699-0.267,1.114-0.267
				c0.497,0,0.96,0.13,1.379,0.386c0.419,0.259,0.749,0.635,0.993,1.129c0.244,0.497,0.366,1.081,0.366,1.758
				c0,0.497-0.07,0.957-0.21,1.376c-0.14,0.418-0.336,0.767-0.581,1.05c-0.246,0.281-0.535,0.501-0.868,0.654
				c-0.339,0.151-0.695,0.227-1.08,0.227c-0.461,0-0.853-0.093-1.166-0.28c-0.314-0.182-0.614-0.458-0.901-0.816v2.433
				c0,0.71-0.26,1.069-0.777,1.069c-0.306,0-0.505-0.092-0.607-0.275c-0.095-0.187-0.146-0.452-0.146-0.807v-6.996
				c0-0.309,0.066-0.537,0.2-0.692c0.134-0.15,0.32-0.228,0.553-0.228c0.231,0,0.416,0.078,0.56,0.234
				C283.417,467.018,283.487,467.241,283.487,467.538 M286.665,469.892c0-0.428-0.067-0.796-0.197-1.102
				c-0.131-0.308-0.312-0.542-0.541-0.705c-0.229-0.164-0.489-0.248-0.77-0.248c-0.446,0-0.824,0.178-1.13,0.527
				c-0.308,0.354-0.462,0.872-0.462,1.558c0,0.641,0.153,1.146,0.46,1.504c0.305,0.358,0.679,0.536,1.133,0.536
				c0.268,0,0.519-0.079,0.748-0.233c0.232-0.158,0.416-0.392,0.552-0.704C286.595,470.714,286.665,470.335,286.665,469.892"/>
			<path style="fill:#FFFFFF;" d="M289.925,465.871c-0.226,0-0.418-0.071-0.577-0.209c-0.162-0.139-0.242-0.333-0.242-0.585
				c0-0.23,0.082-0.419,0.248-0.569c0.164-0.146,0.354-0.222,0.571-0.222c0.212,0,0.397,0.067,0.559,0.2
				c0.162,0.137,0.244,0.334,0.244,0.591c0,0.25-0.079,0.444-0.236,0.585C290.332,465.8,290.145,465.871,289.925,465.871
				 M290.728,467.546v4.689c0,0.322-0.078,0.568-0.231,0.732c-0.156,0.168-0.35,0.25-0.588,0.25c-0.238,0-0.428-0.084-0.58-0.254
				c-0.146-0.173-0.222-0.416-0.222-0.729v-4.642c0-0.319,0.076-0.559,0.222-0.721c0.152-0.165,0.342-0.245,0.58-0.245
				c0.238,0,0.432,0.079,0.588,0.245C290.65,467.033,290.728,467.259,290.728,467.546"/>
			<path style="fill:#FFFFFF;" d="M295.952,472.477l-1.428-2.354l-0.88,0.83v1.291c0,0.312-0.083,0.551-0.248,0.718
				c-0.161,0.17-0.354,0.254-0.566,0.254c-0.249,0-0.447-0.082-0.588-0.25c-0.142-0.165-0.215-0.41-0.215-0.734v-6.915
				c0-0.358,0.072-0.632,0.207-0.821c0.139-0.191,0.341-0.283,0.596-0.283c0.25,0,0.445,0.086,0.593,0.257
				c0.146,0.169,0.221,0.421,0.221,0.751v3.933l1.823-1.914c0.227-0.235,0.396-0.4,0.517-0.486c0.118-0.087,0.262-0.13,0.431-0.13
				c0.204,0,0.371,0.065,0.51,0.193c0.132,0.129,0.2,0.291,0.2,0.483c0,0.237-0.221,0.556-0.659,0.951l-0.861,0.789l1.662,2.614
				c0.121,0.196,0.212,0.34,0.265,0.441c0.053,0.1,0.081,0.2,0.081,0.289c0,0.258-0.071,0.459-0.213,0.61
				c-0.14,0.148-0.327,0.221-0.554,0.221c-0.198,0-0.352-0.051-0.458-0.16C296.282,472.949,296.133,472.755,295.952,472.477"/>
			<path style="fill:#FFFFFF;" d="M299.474,473.217c-0.245,0-0.455-0.079-0.634-0.238c-0.178-0.156-0.268-0.378-0.268-0.665
				c0-0.241,0.086-0.449,0.256-0.622c0.171-0.174,0.38-0.262,0.63-0.262c0.248,0,0.46,0.087,0.639,0.258
				c0.174,0.172,0.264,0.383,0.264,0.626c0,0.283-0.089,0.505-0.264,0.662C299.919,473.138,299.711,473.217,299.474,473.217"/>
			<path style="fill:#FFFFFF;" d="M307.536,471.211c0,0.2-0.061,0.417-0.182,0.646c-0.12,0.231-0.305,0.449-0.553,0.656
				c-0.247,0.207-0.557,0.377-0.935,0.502c-0.375,0.126-0.8,0.192-1.269,0.192c-1.004,0-1.786-0.294-2.349-0.876
				c-0.56-0.585-0.841-1.368-0.841-2.35c0-0.667,0.128-1.254,0.387-1.765c0.254-0.509,0.628-0.904,1.113-1.184
				c0.487-0.28,1.072-0.419,1.746-0.419c0.421,0,0.805,0.061,1.158,0.184c0.35,0.122,0.645,0.282,0.891,0.474
				c0.242,0.197,0.428,0.402,0.556,0.62c0.129,0.22,0.192,0.426,0.192,0.617c0,0.192-0.071,0.357-0.214,0.492
				c-0.147,0.134-0.322,0.203-0.524,0.203c-0.137,0-0.249-0.035-0.338-0.104c-0.09-0.07-0.19-0.181-0.299-0.339
				c-0.198-0.299-0.404-0.526-0.622-0.674c-0.214-0.152-0.488-0.226-0.821-0.226c-0.476,0-0.865,0.186-1.158,0.561
				c-0.292,0.372-0.44,0.887-0.44,1.534c0,0.305,0.039,0.587,0.114,0.842c0.073,0.254,0.182,0.472,0.325,0.652
				c0.144,0.179,0.315,0.315,0.516,0.409c0.203,0.096,0.425,0.141,0.665,0.141c0.326,0,0.604-0.075,0.836-0.225
				c0.235-0.151,0.439-0.38,0.616-0.689c0.099-0.182,0.204-0.323,0.318-0.427c0.114-0.102,0.256-0.156,0.422-0.156
				c0.198,0,0.363,0.077,0.491,0.227C307.469,470.88,307.536,471.042,307.536,471.211"/>
			<path style="fill:#FFFFFF;" d="M314.53,469.923c0,0.481-0.076,0.928-0.222,1.337c-0.155,0.408-0.37,0.758-0.656,1.049
				c-0.285,0.293-0.626,0.518-1.02,0.675c-0.4,0.154-0.844,0.234-1.337,0.234c-0.491,0-0.933-0.08-1.326-0.239
				c-0.389-0.156-0.732-0.384-1.016-0.676c-0.288-0.298-0.505-0.646-0.657-1.048c-0.143-0.402-0.219-0.846-0.219-1.332
				c0-0.491,0.078-0.941,0.224-1.349c0.151-0.409,0.368-0.757,0.649-1.046c0.282-0.289,0.621-0.511,1.019-0.669
				c0.402-0.156,0.844-0.234,1.326-0.234c0.49,0,0.936,0.078,1.337,0.239c0.398,0.157,0.739,0.384,1.027,0.674
				c0.286,0.297,0.502,0.643,0.65,1.045C314.455,468.991,314.53,469.434,314.53,469.923 M312.903,469.923
				c0-0.662-0.146-1.176-0.436-1.543c-0.289-0.372-0.681-0.555-1.171-0.555c-0.317,0-0.597,0.082-0.839,0.246
				c-0.242,0.164-0.425,0.406-0.556,0.728c-0.131,0.321-0.197,0.696-0.197,1.124c0,0.424,0.064,0.792,0.194,1.108
				c0.13,0.319,0.314,0.561,0.553,0.729c0.241,0.167,0.522,0.253,0.845,0.253c0.49,0,0.882-0.185,1.171-0.557
				C312.756,471.086,312.903,470.574,312.903,469.923"/>
			<path style="fill:#FFFFFF;" d="M320.712,470.042v2.154c0,0.342-0.075,0.594-0.231,0.767c-0.156,0.17-0.357,0.255-0.611,0.255
				c-0.245,0-0.446-0.085-0.595-0.255c-0.154-0.173-0.233-0.425-0.233-0.767v-2.582c0-0.408-0.013-0.726-0.04-0.953
				c-0.029-0.221-0.105-0.41-0.226-0.552c-0.123-0.147-0.318-0.22-0.582-0.22c-0.532,0-0.88,0.181-1.048,0.55
				c-0.167,0.36-0.254,0.883-0.254,1.567v2.189c0,0.336-0.076,0.591-0.226,0.765c-0.156,0.171-0.355,0.258-0.603,0.258
				c-0.247,0-0.448-0.087-0.604-0.258c-0.157-0.173-0.235-0.428-0.235-0.765v-4.637c0-0.306,0.07-0.538,0.209-0.695
				c0.143-0.16,0.329-0.239,0.556-0.239c0.223,0,0.407,0.077,0.557,0.222c0.148,0.149,0.222,0.354,0.222,0.615v0.153
				c0.283-0.334,0.584-0.582,0.903-0.738c0.323-0.162,0.676-0.241,1.07-0.241c0.407,0,0.757,0.082,1.049,0.244
				c0.293,0.163,0.533,0.409,0.725,0.735c0.275-0.33,0.568-0.577,0.881-0.738c0.313-0.161,0.658-0.241,1.039-0.241
				c0.441,0,0.826,0.089,1.146,0.262c0.319,0.174,0.558,0.425,0.717,0.747c0.138,0.295,0.206,0.756,0.206,1.385v3.164
				c0,0.342-0.076,0.594-0.229,0.767c-0.154,0.17-0.36,0.255-0.612,0.255c-0.247,0-0.446-0.087-0.603-0.258
				c-0.156-0.173-0.235-0.428-0.235-0.765v-2.726c0-0.349-0.015-0.627-0.043-0.836c-0.029-0.211-0.11-0.388-0.239-0.529
				c-0.133-0.142-0.331-0.215-0.596-0.215c-0.214,0-0.416,0.066-0.609,0.192c-0.192,0.124-0.342,0.298-0.45,0.508
				C320.774,468.864,320.712,469.348,320.712,470.042"/>
		</g>
		<g>
			<path style="fill:#FFFFFF;" d="M245.272,469.531c-0.001-0.003-0.001-0.006-0.001-0.011
				C245.271,469.525,245.271,469.527,245.272,469.531z"/>
			<path style="fill:#FFFFFF;" d="M245.354,470.049c0.001,0,0.001,0,0.001,0c-0.031-0.148-0.055-0.294-0.074-0.439
				C245.3,469.756,245.324,469.903,245.354,470.049z"/>
			<path style="fill:#FFFFFF;" d="M245.89,471.553c-0.004-0.006-0.007-0.013-0.011-0.021
				C245.883,471.539,245.887,471.547,245.89,471.553z"/>
			<path style="fill:#FFFFFF;" d="M245.839,471.453c-0.014-0.027-0.027-0.056-0.041-0.084
				C245.811,471.398,245.825,471.425,245.839,471.453z"/>
			<path style="fill:#FFFFFF;" d="M245.504,470.628c0.079,0.25,0.175,0.493,0.286,0.724c-0.113-0.236-0.206-0.479-0.283-0.724
				C245.506,470.628,245.505,470.628,245.504,470.628z"/>
			<path style="fill:#FFFFFF;" d="M251.545,463.32c0.313,0,0.544,0.025,0.809,0.069l0.075-0.477c0,0-0.732-0.225-1.694-0.147
				l-0.076-0.259c0.299-0.063,0.524-0.329,0.524-0.646c0-0.364-0.296-0.659-0.661-0.659c-0.364,0-0.66,0.295-0.66,0.659
				c0,0.317,0.224,0.583,0.522,0.646l0.084,0.289c-1.021,0.14-1.834,0.539-1.834,0.539l0.144,0.441
				c0.618-0.206,1.154-0.331,1.64-0.383C250.895,463.342,251.253,463.32,251.545,463.32z"/>
			<path style="fill:#FFFFFF;" d="M245.878,465.732l0.004-0.005c0.024-0.031,0.047-0.06,0.071-0.089l-0.196-0.141l-0.305-0.223
				c-0.017,0.024-0.497,0.465-0.876,1.28c-0.016-0.026-0.035-0.051-0.056-0.074c-0.114-0.124-0.272-0.187-0.474-0.184
				c-0.003,0-0.006,0-0.009,0c-0.125,0-0.211-0.041-0.267-0.092c0.056-0.071,0.089-0.16,0.089-0.258c0-0.23-0.187-0.418-0.418-0.418
				c-0.23,0-0.418,0.188-0.418,0.418c0,0.231,0.187,0.418,0.418,0.418c0.036,0,0.071-0.006,0.104-0.013
				c0.103,0.114,0.266,0.214,0.505,0.209c0.123-0.001,0.213,0.031,0.273,0.097c0.069,0.076,0.093,0.185,0.1,0.267
				c-0.001,0.001-0.001,0.003-0.002,0.003c-0.272,0.743-0.194,1.669-0.194,1.669l0.661,0.026c0.013-0.337,0.062-0.926,0.232-1.394
				C245.449,466.322,245.861,465.756,245.878,465.732z"/>
			<path style="fill:#FFFFFF;" d="M257.295,463.873c-0.23,0-0.418,0.187-0.418,0.418c0,0.036,0.005,0.07,0.015,0.103
				c-0.115,0.104-0.214,0.267-0.211,0.507c0.002,0.123-0.03,0.212-0.096,0.273c-0.053,0.047-0.12,0.072-0.185,0.088
				c-0.492-0.689-1.097-1.11-1.097-1.11l-0.474,0.508c0.358,0.326,0.725,0.734,1.08,1.244c0.246,0.352,0.499,0.806,0.71,1.259
				l0.64-0.304c0,0-0.292-0.722-0.704-1.37c0.072-0.025,0.144-0.064,0.207-0.12c0.125-0.113,0.187-0.273,0.183-0.474
				c-0.001-0.13,0.042-0.218,0.093-0.276c0.071,0.054,0.161,0.089,0.258,0.089c0.232,0,0.419-0.187,0.419-0.418
				C257.714,464.059,257.527,463.873,257.295,463.873z"/>
			<path style="fill:#FFFFFF;" d="M255.634,469.624c-0.881,0.429-2.33,0.996-4.238,1.262c-0.749,0.104-1.475,0.142-2.143,0.142
				c-0.869,0-1.637-0.065-2.227-0.139c-0.673-0.085-1.199-0.188-1.52-0.261c0.077,0.245,0.171,0.488,0.283,0.724
				c0.002,0.006,0.005,0.013,0.008,0.017c0.013,0.028,0.027,0.056,0.041,0.084c0.013,0.027,0.027,0.054,0.041,0.079
				c0.004,0.007,0.007,0.015,0.011,0.021c0.189,0.357,0.417,0.684,0.675,0.968c0.9,0.984,1.817,1.14,1.826,1.141l0.014,0.002
				l0.013,0.005c0.008,0.003,0.821,0.266,2.057,0.266c1.216,0,2.409-0.245,3.546-0.729c0.842-0.431,1.639-1.085,2.034-1.669
				c0.305-0.452,0.526-0.933,0.656-1.434c0.069-0.266,0.124-0.692,0.092-1.141C256.556,469.128,256.164,469.366,255.634,469.624z"/>
			<path style="fill:#FFFFFF;" d="M246.161,465.94c-0.026,0.037-0.408,0.578-0.71,1.408c-0.226,0.622-0.216,1.527-0.216,1.538v0.002
				c0,0.212,0.012,0.423,0.035,0.632c0,0.005,0,0.008,0.001,0.011c0.002,0.027,0.007,0.052,0.009,0.079
				c0.019,0.145,0.043,0.291,0.074,0.439c0.438,0.111,3.049,0.72,5.968,0.314c1.829-0.254,3.218-0.795,4.062-1.204
				c0.701-0.34,1.151-0.648,1.325-0.774c-0.173-0.643-0.651-1.65-1.09-2.279c-1.253-1.791-2.604-2.25-3.298-2.364
				c-0.265-0.043-0.477-0.068-0.777-0.068c-0.28,0-0.626,0.023-1.09,0.071c-0.464,0.048-0.982,0.17-1.582,0.372
				c-0.842,0.282-1.605,0.724-2.204,1.28l-0.021,0.019C246.56,465.497,246.374,465.669,246.161,465.94z M253.829,465.524
				c0.601,0,1.09,0.488,1.09,1.089c0,0.601-0.489,1.09-1.09,1.09c-0.601,0-1.089-0.489-1.089-1.09
				C252.74,466.012,253.228,465.524,253.829,465.524z M248.678,465.48c0.973,0,1.76,0.789,1.76,1.761
				c0,0.972-0.788,1.759-1.76,1.759c-0.972,0-1.76-0.787-1.76-1.759C246.918,466.269,247.707,465.48,248.678,465.48z"/>
		</g>
	</g>
</g>
</svg>
