<svg width="16" height="16" viewBox="0 0 16 16" fill="none" xmlns="http://www.w3.org/2000/svg">
<path d="M14.3788 6.65883H8.67122V0.951261C8.67122 0.698971 8.57099 0.457014 8.3926 0.278618C8.2142 0.100222 7.97225 0 7.71995 0C7.46766 0 7.22571 0.100222 7.04731 0.278618C6.86892 0.457014 6.76869 0.698971 6.76869 0.951261V6.65883H1.06112C0.808834 6.65883 0.566878 6.75905 0.388481 6.93745C0.210085 7.11584 0.109863 7.3578 0.109863 7.61009C0.109863 7.86238 0.210085 8.10434 0.388481 8.28273C0.566878 8.46113 0.808834 8.56135 1.06112 8.56135H6.76869V14.2689C6.76869 14.5212 6.86892 14.7632 7.04731 14.9416C7.22571 15.12 7.46766 15.2202 7.71995 15.2202C7.97225 15.2202 8.2142 15.12 8.3926 14.9416C8.57099 14.7632 8.67122 14.5212 8.67122 14.2689V8.56135H14.3788C14.6311 8.56135 14.873 8.46113 15.0514 8.28273C15.2298 8.10434 15.33 7.86238 15.33 7.61009C15.33 7.3578 15.2298 7.11584 15.0514 6.93745C14.873 6.75905 14.6311 6.65883 14.3788 6.65883Z" fill="white"/>
</svg>
