<svg width="11" height="19" viewBox="0 0 11 19" fill="none" xmlns="http://www.w3.org/2000/svg">
<path fill-rule="evenodd" clip-rule="evenodd" d="M10.2306 0.273522C10.0484 0.0979107 9.8067 0 9.55541 0C9.30411 0 9.06241 0.0979107 8.88019 0.273522L0.981487 8.00947C0.804678 8.17999 0.663892 8.38523 0.567688 8.6127C0.471485 8.84017 0.421875 9.08512 0.421875 9.33265C0.421875 9.58019 0.471485 9.82514 0.567688 10.0526C0.663892 10.2801 0.804678 10.4853 0.981487 10.6558L8.93738 18.4489C9.30635 18.8093 9.90408 18.814 10.2786 18.4582C10.3693 18.3735 10.4418 18.2707 10.4917 18.1564C10.5416 18.042 10.5678 17.9184 10.5686 17.7933C10.5695 17.6682 10.545 17.5443 10.4967 17.4292C10.4484 17.3141 10.3773 17.2103 10.2878 17.1243L3.00713 9.99401C2.91865 9.90874 2.8482 9.8061 2.80005 9.69232C2.75191 9.57854 2.72708 9.45601 2.72708 9.33218C2.72708 9.20836 2.75191 9.08583 2.80005 8.97205C2.8482 8.85827 2.91865 8.75563 3.00713 8.67036L10.2297 1.59623C10.3181 1.51105 10.3886 1.40848 10.4367 1.29478C10.4849 1.18108 10.5097 1.05863 10.5097 0.934878C10.5097 0.811129 10.4849 0.688674 10.4367 0.574974C10.3886 0.461274 10.3191 0.358707 10.2306 0.273522Z" fill="#284180"/>
</svg>
