<svg width="11" height="19" viewBox="0 0 11 19" fill="none" xmlns="http://www.w3.org/2000/svg">
<path fill-rule="evenodd" clip-rule="evenodd" d="M0.493991 0.273522C0.676209 0.0979107 0.917911 0 1.1692 0C1.4205 0 1.6622 0.0979107 1.84442 0.273522L9.74312 8.00947C9.91993 8.17999 10.0607 8.38523 10.1569 8.6127C10.2531 8.84017 10.3027 9.08512 10.3027 9.33265C10.3027 9.58019 10.2531 9.82514 10.1569 10.0526C10.0607 10.2801 9.91993 10.4853 9.74312 10.6558L1.78723 18.4489C1.41826 18.8093 0.820528 18.814 0.446025 18.4582C0.355356 18.3735 0.282821 18.2707 0.232924 18.1564C0.183026 18.042 0.156832 17.9184 0.155967 17.7933C0.155102 17.6682 0.179585 17.5443 0.227895 17.4292C0.276205 17.3141 0.347312 17.2103 0.4368 17.1243L7.71748 9.99401C7.80596 9.90874 7.87641 9.8061 7.92456 9.69232C7.9727 9.57854 7.99753 9.45601 7.99753 9.33218C7.99753 9.20836 7.9727 9.08583 7.92456 8.97205C7.87641 8.85827 7.80596 8.75563 7.71748 8.67036L0.494912 1.59623C0.406461 1.51105 0.336024 1.40848 0.28789 1.29478C0.239757 1.18108 0.214933 1.05863 0.214933 0.934878C0.214933 0.811129 0.239757 0.688674 0.28789 0.574974C0.336024 0.461274 0.40554 0.358707 0.493991 0.273522Z" fill="#284180"/>
</svg>
